<svg width="218" height="59" viewBox="0 0 218 59" fill="none" xmlns="http://www.w3.org/2000/svg">
<path d="M82.2334 20V33.6834H78.4452V28.1578H73.8078V33.6834H70V20H73.8078V25.1207H78.4452V20H82.2334Z" fill="#FFFBFF"/>
<path d="M95.4728 22.8412V33.6834H91.6845V31.8677C91.3775 32.449 90.9269 32.9127 90.3325 33.2589C89.7381 33.605 89.0458 33.7814 88.2424 33.7814C86.9949 33.7814 86.0087 33.3634 85.2967 32.5339C84.5848 31.7044 84.2256 30.5679 84.2256 29.1245V22.8412H88.0138V28.6607C88.0138 29.2812 88.1771 29.7645 88.5037 30.1172C88.8303 30.4699 89.2744 30.6463 89.8296 30.6463C90.3978 30.6463 90.8485 30.4634 91.1816 30.1042C91.5147 29.7449 91.6845 29.2355 91.6845 28.5758V22.8347H95.4728V22.8412Z" fill="#FFFBFF"/>
<path d="M107.765 23.9907C108.47 24.8202 108.829 25.9502 108.829 27.3806V33.6834H105.061V27.8639C105.061 27.2303 104.898 26.7405 104.571 26.3878C104.244 26.0351 103.8 25.8587 103.245 25.8587C102.677 25.8587 102.226 26.0416 101.893 26.4074C101.56 26.7731 101.39 27.2826 101.39 27.9227V33.6834H97.5823V22.8412H101.39V24.6569C101.697 24.0756 102.148 23.6119 102.742 23.2657C103.337 22.9196 104.029 22.7432 104.832 22.7432C106.08 22.7432 107.053 23.1612 107.765 23.9907Z" fill="#FFFBFF"/>
<path d="M116.857 23.2004C117.418 23.527 117.83 23.9842 118.104 24.5655V22.8477H121.892V33.5724C121.892 34.5782 121.696 35.4861 121.311 36.3091C120.926 37.1255 120.325 37.7786 119.515 38.2685C118.705 38.7584 117.68 39 116.445 39C114.76 39 113.415 38.6081 112.415 37.8244C111.416 37.0406 110.835 35.9629 110.665 34.5978H114.394C114.486 34.957 114.675 35.2379 114.976 35.4273C115.269 35.6233 115.674 35.7147 116.171 35.7147C117.458 35.7147 118.104 35.0028 118.104 33.5724V31.9656C117.836 32.5469 117.418 32.9976 116.857 33.3307C116.295 33.6573 115.635 33.8206 114.878 33.8206C114.015 33.8206 113.232 33.5985 112.539 33.1544C111.84 32.7102 111.298 32.0636 110.893 31.2211C110.495 30.3785 110.292 29.3857 110.292 28.2558C110.292 27.1193 110.495 26.1396 110.893 25.297C111.292 24.461 111.84 23.8209 112.539 23.3768C113.238 22.9326 114.015 22.7106 114.878 22.7106C115.635 22.704 116.295 22.8739 116.857 23.2004ZM114.695 26.6229C114.329 27.0148 114.146 27.5634 114.146 28.2558C114.146 28.9677 114.329 29.5164 114.695 29.9082C115.06 30.3001 115.544 30.4961 116.132 30.4961C116.7 30.4961 117.17 30.2936 117.542 29.8952C117.915 29.4968 118.104 28.9481 118.104 28.2492C118.104 27.5634 117.915 27.0279 117.542 26.6229C117.17 26.2245 116.7 26.022 116.132 26.022C115.537 26.0286 115.06 26.231 114.695 26.6229Z" fill="#FFFBFF"/>
<path d="M129.39 23.3245C130.037 22.9392 130.716 22.7432 131.441 22.7432V26.7993H130.337C129.488 26.7993 128.848 26.9625 128.424 27.2891C127.999 27.6157 127.784 28.1905 127.784 29.0004V33.6769H123.976V22.8347H127.784V24.8659C128.215 24.2259 128.744 23.7099 129.39 23.3245Z" fill="#FFFBFF"/>
<path d="M135.772 22.8412L138.09 28.909L140.233 22.8412H144.445L137.587 38.8629H133.414L136.059 33.2197L131.539 22.8412H135.772V22.8412Z" fill="#FFFBFF"/>
<path d="M164.837 20.0588V33.6834H161.068V25.9501L158.534 33.6834H155.268L152.734 25.9501V33.6834H148.926V20.0588H153.583L156.947 28.9089L160.213 20.0588H164.837Z" fill="#FFFBFF"/>
<path d="M174.974 23.3767C175.829 23.8209 176.502 24.4675 176.992 25.31C177.482 26.1526 177.723 27.1388 177.723 28.2557C177.723 29.3922 177.482 30.3784 176.992 31.2145C176.502 32.0505 175.829 32.6971 174.974 33.1478C174.118 33.5984 173.145 33.827 172.067 33.827C170.983 33.827 170.01 33.605 169.148 33.1478C168.285 32.6971 167.606 32.0505 167.116 31.2145C166.626 30.3784 166.385 29.3922 166.385 28.2557C166.385 27.1193 166.626 26.1395 167.116 25.297C167.606 24.461 168.285 23.8209 169.148 23.3767C170.01 22.9326 170.983 22.7105 172.067 22.7105C173.145 22.704 174.118 22.9261 174.974 23.3767ZM170.748 26.5706C170.402 26.956 170.225 27.5177 170.225 28.2492C170.225 28.9938 170.402 29.562 170.748 29.9474C171.094 30.3327 171.532 30.5287 172.061 30.5287C172.577 30.5287 173.008 30.3327 173.354 29.9408C173.7 29.549 173.876 28.9872 173.876 28.2492C173.876 27.5111 173.7 26.956 173.354 26.5706C173.008 26.1853 172.577 25.9893 172.061 25.9893C171.538 25.9958 171.1 26.1853 170.748 26.5706Z" fill="#FFFBFF"/>
<path d="M186.789 23.7491C187.638 24.448 188.174 25.3689 188.396 26.5119H184.843C184.751 26.1266 184.568 25.8327 184.294 25.6433C184.02 25.4473 183.68 25.3559 183.282 25.3559C183.001 25.3559 182.785 25.4147 182.635 25.5388C182.485 25.6628 182.413 25.8327 182.413 26.0482C182.413 26.316 182.57 26.5185 182.883 26.6556C183.197 26.7928 183.719 26.943 184.438 27.1128C185.274 27.2957 185.966 27.4851 186.515 27.6941C187.063 27.9031 187.54 28.2362 187.945 28.7C188.35 29.1637 188.553 29.7907 188.553 30.5745C188.553 31.208 188.376 31.7632 188.03 32.2531C187.684 32.7429 187.174 33.1283 186.515 33.4026C185.849 33.6769 185.071 33.8206 184.163 33.8206C182.642 33.8206 181.433 33.4941 180.532 32.8344C179.631 32.1747 179.082 31.2342 178.886 30.0128H182.537C182.589 30.4112 182.759 30.7117 183.047 30.9011C183.334 31.0905 183.7 31.1885 184.137 31.1885C184.431 31.1885 184.66 31.1231 184.817 30.9925C184.973 30.8619 185.052 30.6986 185.052 30.4896C185.052 30.1826 184.888 29.954 184.562 29.8103C184.235 29.6666 183.706 29.5295 182.988 29.3858C182.165 29.216 181.486 29.0331 180.956 28.8371C180.427 28.6347 179.97 28.3146 179.572 27.8705C179.18 27.4263 178.984 26.8124 178.984 26.0221C178.984 25.0424 179.363 24.2455 180.127 23.625C180.885 23.0045 181.969 22.6976 183.373 22.6976C184.803 22.7041 185.94 23.0568 186.789 23.7491Z" fill="#FFFBFF"/>
<path d="M196.665 30.4372V33.6834H195.097C193.771 33.6834 192.733 33.3568 191.988 32.6971C191.244 32.0374 190.865 30.9532 190.865 29.4314V26.0089H189.474V22.8412H190.865V20.2155H194.673V22.8412H196.626V26.0089H194.673V29.5098C194.673 29.8429 194.745 30.0845 194.895 30.2217C195.045 30.3654 195.293 30.4372 195.639 30.4372H196.665Z" fill="#FFFBFF"/>
<path d="M208.728 28.9481H201.557C201.622 30.1695 202.157 30.7835 203.163 30.7835C203.536 30.7835 203.849 30.692 204.091 30.5157C204.332 30.3328 204.502 30.0976 204.594 29.8037H208.61C208.467 30.5614 208.153 31.2472 207.663 31.8611C207.174 32.4751 206.553 32.9519 205.808 33.2981C205.064 33.6442 204.241 33.8206 203.353 33.8206C202.268 33.8206 201.315 33.5985 200.485 33.1544C199.656 32.7102 199.009 32.0636 198.546 31.2211C198.082 30.3785 197.847 29.3857 197.847 28.2558C197.847 27.1193 198.082 26.1396 198.546 25.297C199.009 24.461 199.662 23.8209 200.498 23.3768C201.334 22.9326 202.288 22.7106 203.359 22.7106C204.443 22.7106 205.397 22.9326 206.22 23.3702C207.043 23.8079 207.683 24.4349 208.14 25.2448C208.597 26.0547 208.826 26.9952 208.826 28.0664C208.826 28.3342 208.793 28.6281 208.728 28.9481ZM204.515 26.1069C204.208 25.8261 203.816 25.6824 203.353 25.6824C202.85 25.6824 202.438 25.8261 202.125 26.1069C201.811 26.3878 201.628 26.8123 201.576 27.361H204.959C204.972 26.8123 204.822 26.3943 204.515 26.1069Z" fill="#FFFBFF"/>
<path d="M215.762 23.3245C216.409 22.9392 217.088 22.7432 217.813 22.7432V26.7993H216.71C215.86 26.7993 215.22 26.9625 214.796 27.2891C214.371 27.6157 214.156 28.1905 214.156 29.0004V33.6769H210.348V22.8347H214.156V24.8659C214.58 24.2259 215.116 23.7099 215.762 23.3245Z" fill="#FFFBFF"/>
<path d="M29.0636 58.1272C45.115 58.1272 58.1272 45.115 58.1272 29.0636C58.1272 13.0122 45.115 0 29.0636 0C13.0122 0 0 13.0122 0 29.0636C0 45.115 13.0122 58.1272 29.0636 58.1272Z" fill="#FFB592"/>
<path d="M38.9895 38.9116C38.9895 38.9116 39.9764 41.5002 39.4656 44.604C38.9548 47.7077 16.6961 44.604 16.6961 44.604C16.6961 44.604 15.8131 37.0805 20.605 34.5568C25.397 32.0331 36.2883 28.5744 38.9895 38.9116Z" fill="#FF001F"/>
<g opacity="0.35">
<g opacity="0.35">
<path opacity="0.35" d="M38.9895 38.9116C38.9895 38.9116 39.9764 41.5002 39.4656 44.604C38.9548 47.7077 16.6961 44.604 16.6961 44.604C16.6961 44.604 15.8131 37.0805 20.605 34.5568C25.397 32.0331 36.2883 28.5744 38.9895 38.9116Z" fill="#4D0D4F"/>
</g>
</g>
<path d="M8.95622 34.0071L30.2366 40.0977L30.4401 39.4787L9.81333 32.3188C9.81333 32.3188 8.47573 32.5959 8.95622 34.0071Z" fill="white"/>
<path d="M30.2366 40.4267C30.2063 40.4267 30.176 40.4224 30.1457 40.4137L8.86531 34.3274C8.76142 34.2971 8.67484 34.2192 8.64021 34.1153C8.4584 33.5828 8.48005 33.1197 8.69649 32.7344C9.03414 32.1457 9.71808 31.9942 9.74406 31.9898C9.80466 31.9769 9.86527 31.9812 9.92154 32.0028L30.5483 39.1584C30.7214 39.219 30.8123 39.4051 30.7561 39.5783L30.5526 40.1973C30.5093 40.3401 30.3795 40.4267 30.2366 40.4267ZM9.2246 33.7344L30.0202 39.6821L9.80466 32.6695C9.6748 32.7128 9.41074 32.8296 9.27655 33.0721C9.17698 33.2452 9.15967 33.466 9.2246 33.7344Z" fill="#4D0D4F"/>
<path d="M33.3014 46.3529C31.8382 46.3529 30.0504 46.2879 27.8601 46.1364C22.2846 45.7512 16.6961 44.9763 16.6398 44.9677C16.471 44.946 16.3411 44.8118 16.3238 44.643C16.3151 44.5651 16.103 42.682 16.4883 40.4614C17.0034 37.4702 18.367 35.3144 20.4318 34.2279C24.4403 32.1154 30.2019 30.5094 34.3489 32.3362C36.8207 33.4271 38.5003 35.6001 39.3401 38.7991C39.4396 39.0675 40.3313 41.6042 39.8292 44.6646C39.7037 45.4352 38.7946 46.3529 33.3014 46.3529ZM17.0381 44.275C18.2588 44.4395 23.0941 45.0629 27.9163 45.3962C38.3098 46.1148 39.0543 44.8075 39.0976 44.5391C39.5868 41.5782 38.6518 39.0632 38.6388 39.0372C38.6345 39.0242 38.6301 39.0112 38.6258 38.9982C37.8466 36.02 36.3056 34.0028 34.0459 33.0072C29.0029 30.7865 22.1071 34.1759 20.7738 34.8772C16.7827 36.9897 16.9428 42.9071 17.0381 44.275Z" fill="#4D0D4F"/>
<path d="M13.2202 33.5352C13.2202 33.5352 9.02987 36.0589 9.29825 39.8812C9.56664 43.7036 13.5102 44.868 14.7525 39.6388C15.9906 34.4053 13.2202 33.5352 13.2202 33.5352Z" fill="white"/>
<path d="M11.8307 43.2101C11.783 43.2101 11.7354 43.2101 11.6878 43.2058C10.3848 43.0976 9.38056 41.734 9.25069 39.8856C8.98231 36.0762 13.1553 33.5222 13.1942 33.4963L13.2116 33.4833L13.2332 33.4876C13.2635 33.4963 13.9518 33.7214 14.4929 34.5958C14.9907 35.3966 15.4452 36.9247 14.8002 39.6432C14.1726 42.2794 12.8826 43.2101 11.8307 43.2101ZM13.2245 33.5872C12.9172 33.7776 9.09053 36.258 9.34593 39.8769C9.47146 41.6777 10.4368 43.0067 11.6921 43.1062C12.7267 43.1885 14.0643 42.3184 14.705 39.6215C15.8651 34.73 13.4713 33.6781 13.2245 33.5872Z" fill="#4D0D4F"/>
<path d="M18.1928 40.4431C18.1928 40.4431 15.76 44.0837 11.7602 43.3564C7.76042 42.6292 9.00711 34.7724 12.7126 35.2312C16.418 35.6901 20.9113 37.4086 18.1928 40.4431Z" fill="#E82323"/>
<path d="M12.8001 43.5045C12.4624 43.5045 12.1161 43.4742 11.7525 43.4093C9.64869 43.0283 9.01236 40.7297 9.31537 38.7601C9.60107 36.8727 10.7915 34.9507 12.7221 35.1888C15.2199 35.4962 18.3539 36.4399 18.9686 38.0805C19.2457 38.8164 18.9989 39.6259 18.2327 40.4786C18.1548 40.5869 16.1203 43.5045 12.8001 43.5045ZM12.3975 35.2624C10.7136 35.2624 9.67033 37.0329 9.40628 38.7688C9.11192 40.6951 9.72661 42.9374 11.7698 43.3097C15.696 44.0239 18.1288 40.4527 18.1548 40.418L18.1591 40.4137C18.8994 39.5869 19.1418 38.812 18.8777 38.1108C18.276 36.5091 15.1809 35.5871 12.7092 35.2797C12.6009 35.2711 12.5014 35.2624 12.3975 35.2624Z" fill="#4D0D4F"/>
<g opacity="0.35">
<g opacity="0.35">
<path opacity="0.35" d="M18.1938 40.444C18.1938 40.444 15.761 44.0846 11.7612 43.3573C7.76139 42.6301 9.00809 34.7733 12.7135 35.2322C16.419 35.691 20.9123 37.4095 18.1938 40.444Z" fill="#4D0D4F"/>
</g>
</g>
<path d="M12.8262 43.8291C12.4625 43.8291 12.0859 43.7988 11.692 43.7252C9.3761 43.3054 8.66618 40.8293 8.99084 38.7082C9.30251 36.6736 10.6098 34.6001 12.7569 34.8685C15.4667 35.2018 18.6008 36.1931 19.2631 37.9679C19.5834 38.8207 19.3194 39.7341 18.4796 40.6778C18.2718 40.9851 16.2199 43.8291 12.8262 43.8291ZM12.4063 35.5871C10.9085 35.5871 9.97348 37.219 9.72674 38.8207C9.45402 40.5998 9.99512 42.6647 11.8262 42.998C12.1639 43.0586 12.4885 43.0889 12.8002 43.0889C15.9472 43.0889 17.8649 40.2752 17.8865 40.2449C17.8952 40.2319 17.9082 40.2146 17.9168 40.2016C18.5705 39.47 18.7913 38.8077 18.5748 38.2277C18.0597 36.8554 15.2373 35.9204 12.6703 35.6044C12.5794 35.5914 12.4885 35.5871 12.4063 35.5871Z" fill="#4D0D4F"/>
<path d="M11.8305 43.5304C11.7742 43.5304 11.7179 43.5261 11.6617 43.5218C10.1942 43.4006 9.07302 41.9158 8.93017 39.9029C8.6488 35.8944 12.9646 33.3621 13.1464 33.2539C13.2373 33.2019 13.3412 33.1889 13.4408 33.2192C13.562 33.2582 16.419 34.2105 15.1117 39.7167C14.4407 42.5391 13.0079 43.5304 11.8305 43.5304ZM13.3585 33.9941C12.614 34.4746 9.4453 36.7082 9.66607 39.8509C9.79593 41.6777 10.7959 42.7079 11.7179 42.7815C12.6183 42.8551 13.7958 42.0456 14.3888 39.5436C15.3714 35.4183 13.852 34.2538 13.3585 33.9941Z" fill="#4D0D4F"/>
<path d="M13.3282 33.5786C13.3282 33.5786 9.02537 36.059 9.29808 39.8813C9.56647 43.7036 13.51 44.8681 14.7524 39.6389C15.9904 34.4054 13.3282 33.5786 13.3282 33.5786Z" fill="#4D0D4F"/>
<path d="M13.3933 33.5353C13.3933 33.5353 9.8004 35.4832 10.0298 38.4311C10.2593 41.3791 13.6401 42.2794 14.7049 38.245C15.7698 34.2106 13.3933 33.5353 13.3933 33.5353Z" fill="#FFD2B3"/>
<path d="M12.1985 41.3314C12.1379 41.3314 12.0773 41.3271 12.0167 41.3228C10.7527 41.2102 9.78302 40.0328 9.65749 38.4571C9.41075 35.3057 13.0556 33.2885 13.2114 33.2062C13.298 33.1586 13.3976 33.15 13.4885 33.1759C13.5188 33.1846 14.2157 33.3881 14.7482 34.1629C15.4234 35.1499 15.5273 36.5524 15.0598 38.3359C14.4754 40.5522 13.2331 41.3314 12.1985 41.3314ZM13.4235 33.9421C12.7785 34.3361 10.2159 36.0503 10.3977 38.4008C10.4929 39.6086 11.1856 40.5046 12.0816 40.5869C12.8435 40.6561 13.8391 40.0501 14.3412 38.1497C15.1594 35.0633 13.8651 34.1543 13.4235 33.9421Z" fill="#4D0D4F"/>
<path d="M28.687 48.0887C38.6157 48.0887 46.6645 47.1352 46.6645 45.9589C46.6645 44.7827 38.6157 43.8292 28.687 43.8292C18.7583 43.8292 10.7095 44.7827 10.7095 45.9589C10.7095 47.1352 18.7583 48.0887 28.687 48.0887Z" fill="#4D0D4F"/>
<path d="M10.7094 46.3312C10.506 46.3312 10.3372 46.1667 10.3372 45.9589C10.3372 45.5001 10.7008 44.9676 13.4063 44.4612C15.1854 44.1278 17.6875 43.8595 20.6527 43.6863C20.8562 43.6733 21.0336 43.8292 21.0423 44.0326C21.0553 44.2361 20.8994 44.4135 20.696 44.4222C17.9342 44.5867 15.562 44.8334 13.8348 45.1365C11.5016 45.5477 11.125 45.9243 11.0731 45.9892C11.0644 46.1797 10.9042 46.3312 10.7094 46.3312Z" fill="#4D0D4F"/>
<path d="M46.6689 46.3312C46.4741 46.3312 46.3139 46.1797 46.3009 45.9892C46.2533 45.9243 45.868 45.539 43.4612 45.1235C41.6864 44.8161 39.2536 44.5694 36.4269 44.4092C36.2234 44.3962 36.0676 44.2231 36.0763 44.0196C36.0849 43.8162 36.2624 43.6603 36.4659 43.669C39.496 43.8421 42.063 44.1105 43.8898 44.4482C46.6645 44.959 47.0368 45.5001 47.0368 45.9633C47.0368 46.1667 46.8723 46.3312 46.6689 46.3312Z" fill="#4D0D4F"/>
<path d="M36.5349 33.8426C36.5349 33.8426 47.543 30.7648 52.3783 35.2971C56.9885 39.6215 52.6164 47.4177 45.5215 44.275C45.5215 44.275 45.2012 40.8466 37.2015 41.6214" fill="#FF001F"/>
<g opacity="0.35">
<g opacity="0.35">
<path opacity="0.35" d="M51.5862 44.2404C52.8372 42.2015 53.2787 39.5739 50.7767 36.7256C48.3612 33.9768 45.0107 33.0634 41.9849 32.9163C38.9331 33.1717 36.5349 33.8426 36.5349 33.8426L37.2015 41.6215C45.1969 40.8466 45.5215 44.275 45.5215 44.275C47.9413 45.3486 50.0451 45.1451 51.5862 44.2404Z" fill="#4D0D4F"/>
</g>
</g>
<path d="M36.5005 33.7214C37.1369 33.3924 37.8122 33.1889 38.4918 33.0288C39.1757 32.8729 39.864 32.7517 40.561 32.6695C41.2579 32.5872 41.9548 32.5353 42.6561 32.4963C43.3574 32.4574 44.0586 32.4444 44.7642 32.4617C45.4698 32.4747 46.1711 32.5309 46.8767 32.6219C47.2273 32.6651 47.5779 32.7301 47.9242 32.795C48.2705 32.8729 48.6212 32.9465 48.9632 33.0547L49.2186 33.1283L49.474 33.2149L49.7294 33.3015L49.8549 33.3448L49.9804 33.3967C50.1449 33.466 50.3137 33.5352 50.4782 33.6045L50.9631 33.8469C51.5994 34.1889 52.1968 34.6131 52.7249 35.1239C53.2487 35.6304 53.6989 36.2234 54.0279 36.8857C54.3568 37.548 54.5603 38.2709 54.6209 39.0068C54.7464 40.4829 54.2919 41.9937 53.3785 43.1538C52.924 43.7382 52.3483 44.2274 51.7076 44.591C51.0626 44.9589 50.3484 45.1927 49.6211 45.2966C48.8939 45.4005 48.1493 45.3788 47.4351 45.249C46.7208 45.1148 46.0326 44.8897 45.3703 44.6083L45.1495 44.3053C45.1495 44.3139 45.1452 44.288 45.1452 44.2706L45.1322 44.2187C45.1235 44.1841 45.1105 44.1451 45.0975 44.1062C45.0716 44.0326 45.0369 43.959 44.998 43.8854C44.9201 43.7382 44.8248 43.5997 44.7166 43.4698C44.4915 43.2101 44.2188 42.985 43.9071 42.8032C43.5998 42.617 43.2621 42.4699 42.9115 42.3487C42.5609 42.2318 42.1929 42.1409 41.825 42.0716C41.4527 42.0067 41.0761 41.9504 40.6952 41.9331L40.4095 41.9158L40.1238 41.9115L39.8381 41.9071C39.7428 41.9071 39.6476 41.9071 39.5523 41.9071C38.7861 41.8898 38.02 41.9115 37.2191 41.7426C37.1499 41.7296 37.1066 41.6604 37.1196 41.5911C37.1282 41.5478 37.1585 41.5132 37.1975 41.5002C37.9594 41.1885 38.7602 41.1193 39.561 41.115C39.6606 41.115 39.7601 41.115 39.8597 41.1193C39.9593 41.1236 40.0588 41.1323 40.1627 41.1366L40.4614 41.1582L40.7601 41.1885C41.1627 41.2275 41.5609 41.2794 41.9635 41.3487C42.3617 41.4266 42.76 41.5219 43.1539 41.6517C43.5435 41.7859 43.9288 41.9547 44.2924 42.1712C44.656 42.3876 44.998 42.6603 45.288 42.998C45.4309 43.1668 45.5564 43.3529 45.6646 43.5521C45.7166 43.6516 45.7642 43.7555 45.8031 43.8681C45.8248 43.9243 45.8421 43.9806 45.8551 44.0369C45.8637 44.0672 45.8681 44.0975 45.8767 44.1278C45.8854 44.1624 45.8897 44.1841 45.894 44.2403L45.6733 43.9373C46.288 44.1971 46.92 44.4092 47.5693 44.526C48.2186 44.6472 48.8766 44.6602 49.5216 44.5693C50.1622 44.4784 50.7856 44.2706 51.3483 43.9503C51.9067 43.63 52.4089 43.2058 52.8071 42.695C53.608 41.6777 54.0062 40.3574 53.8937 39.0674C53.8417 38.4224 53.6642 37.7904 53.3742 37.2104C53.0885 36.6303 52.6903 36.1022 52.2184 35.6477C51.7466 35.1932 51.2055 34.8079 50.6254 34.4962L50.1795 34.2711L49.7207 34.0763L49.6038 34.0287L49.4869 33.9898L49.2489 33.9075L49.0108 33.8253L48.7684 33.756C48.448 33.6564 48.119 33.5872 47.7901 33.5136C47.4567 33.453 47.1277 33.3881 46.7901 33.3491C46.1191 33.2625 45.4395 33.2062 44.7599 33.1933C44.0803 33.1803 43.3963 33.1889 42.7124 33.2322C42.0284 33.2798 41.3488 33.3577 40.6735 33.4487C39.9939 33.5396 39.3186 33.6348 38.639 33.7387C37.9594 33.8339 37.2754 33.9205 36.5785 33.9508H36.5741C36.5049 33.9551 36.4443 33.8988 36.4443 33.8296C36.4313 33.7906 36.4573 33.743 36.5005 33.7214Z" fill="#4D0D4F"/>
<path d="M51.3125 39.3782C51.3125 42.1832 48.4252 44.4602 46.408 44.4602C44.3908 44.4602 44.0142 42.1876 44.0142 39.3782C44.0142 36.5688 45.6461 34.2961 47.6633 34.2961C49.6806 34.2961 51.3125 36.5731 51.3125 39.3782Z" fill="#E82323"/>
<path d="M46.409 44.5088C44.2576 44.5088 43.9675 41.9158 43.9675 39.3791C43.9675 36.5524 45.6255 34.2495 47.6643 34.2495C49.7032 34.2495 51.3611 36.5481 51.3611 39.3791C51.3611 42.3054 48.3569 44.5088 46.409 44.5088ZM47.6643 34.3491C45.6774 34.3491 44.0628 36.6087 44.0628 39.3835C44.0628 41.8725 44.3398 44.4179 46.409 44.4179C48.318 44.4179 51.2659 42.2578 51.2659 39.3835C51.2659 36.6044 49.6513 34.3491 47.6643 34.3491Z" fill="#4D0D4F"/>
<path d="M51.3135 39.3791C51.3135 42.1842 48.4262 44.4612 46.409 44.4612C44.3917 44.4612 44.0151 42.1885 44.0151 39.3791C44.0151 36.5697 45.6471 34.2971 47.6643 34.2971C49.6815 34.2971 51.3135 36.5741 51.3135 39.3791Z" fill="#4D0D4F"/>
<path d="M46.4089 44.8334C43.9718 44.8334 43.6428 42.076 43.6428 39.3834C43.6428 36.3792 45.4479 33.9335 47.6643 33.9335C49.8806 33.9335 51.6858 36.3792 51.6858 39.3834C51.6858 40.7687 51.0408 42.1409 49.872 43.2447C48.8331 44.223 47.5041 44.8334 46.4089 44.8334ZM47.6643 34.6694C45.8548 34.6694 44.3831 36.7818 44.3831 39.3791C44.3831 42.7253 44.9674 44.0888 46.4089 44.0888C48.2011 44.0888 50.9455 41.9807 50.9455 39.3791C50.9412 36.7818 49.4694 34.6694 47.6643 34.6694Z" fill="#4D0D4F"/>
<path d="M51.0365 38.0068C51.0927 37.8813 51.1317 37.7471 51.1533 37.6086C51.2616 36.877 51.0235 36.3316 50.504 36.0805C50.504 36.0805 51.1533 34.7559 49.8201 34.046C49.5041 33.8772 49.0842 33.8295 48.6297 33.8728H48.6383C48.9933 33.4746 49.4521 33.072 50.0105 32.756C51.2443 32.0591 51.5603 29.9293 49.2617 30.2929C47.2877 30.6089 46.1536 33.4529 45.8722 34.2494L45.8246 34.2581L45.712 34.2754L45.8246 34.2581C45.8939 33.6477 46.1752 31.782 47.067 30.6825C48.279 29.1847 46.6557 26.9814 44.7164 28.648C43.4091 29.7735 43.5347 34.5698 43.5347 34.5741C42.7901 35.0027 41.8378 35.2451 41.4785 36.4355C41.2317 37.258 41.5434 37.7385 41.9027 38.0112C42.604 40.3444 44.8073 40.0933 44.8073 40.0933C44.8073 40.0933 46.5388 42.6776 49.6253 42.907C49.6166 42.9027 52.1879 40.9418 51.0365 38.0068Z" fill="#FFD2B3"/>
<path d="M49.6339 42.9504H49.6165C46.6989 42.7339 44.9631 40.4007 44.7813 40.141C44.5172 40.1583 42.5216 40.2189 41.855 38.0372C41.513 37.7731 41.1667 37.2796 41.4264 36.4225C41.7251 35.4399 42.4048 35.0979 43.0671 34.7646C43.2099 34.691 43.3484 34.6218 43.4826 34.5482C43.474 34.111 43.409 29.7042 44.6817 28.6134C45.699 27.739 46.5777 27.9294 47.0582 28.4013C47.5777 28.9077 47.7681 29.8904 47.1015 30.7172C46.3093 31.6998 46.002 33.3145 45.8981 34.046C46.2834 33.0201 47.4002 30.5484 49.2529 30.254C50.478 30.0592 50.8459 30.5657 50.9541 30.8817C51.1749 31.518 50.755 32.3968 50.0321 32.8037C49.5689 33.0634 49.136 33.4097 48.7508 33.8209C49.1837 33.795 49.5559 33.8599 49.8373 34.0114C51.058 34.6607 50.6555 35.8252 50.5602 36.0632C51.0797 36.336 51.3048 36.8901 51.1966 37.6216C51.1792 37.7515 51.1403 37.8857 51.084 38.0112C52.2182 40.9375 49.6685 42.9244 49.6425 42.9417L49.6339 42.9504ZM44.8246 40.0414L44.8419 40.0674C44.8592 40.0934 46.5907 42.6257 49.6036 42.8551C49.8027 42.695 52.0537 40.799 51.0104 38.0675L50.9585 38.0805L50.9974 37.9896C51.0537 37.864 51.0883 37.7342 51.11 37.6043C51.2139 36.8987 50.9931 36.3706 50.4866 36.1239L50.3827 36.0719L50.4736 36.0416C50.5429 35.8858 51.0018 34.7256 49.8027 34.0893C49.5126 33.9335 49.1101 33.8772 48.6382 33.9205L48.6296 33.8599L48.6036 33.8382C49.0192 33.3751 49.4823 32.9985 49.9888 32.7128C50.6598 32.3318 51.071 31.4877 50.8676 30.9076C50.6901 30.4055 50.123 30.2064 49.2702 30.3406C47.3353 30.6479 46.2141 33.4227 45.9154 34.2668L45.9068 34.2928L45.7163 34.3187L45.7033 34.2235L45.7812 34.2149C45.8548 33.6088 46.1405 31.7474 47.0279 30.6479C47.6599 29.8644 47.4824 28.938 46.9933 28.4619C46.5388 28.0203 45.712 27.8472 44.7466 28.6783C43.4696 29.7735 43.5822 34.5222 43.5822 34.5698V34.6001L43.5562 34.6131C43.4134 34.6953 43.2619 34.7733 43.1147 34.8469C42.4697 35.1715 41.8074 35.5048 41.5217 36.4485C41.3225 37.1065 41.4611 37.6173 41.9286 37.9723L41.9416 37.9809L41.9459 37.9939C42.6255 40.2622 44.7813 40.0458 44.8029 40.0414H44.8246Z" fill="#4D0D4F"/>
<path d="M51.0365 38.0068C51.0927 37.8813 51.1317 37.7471 51.1533 37.6086C51.2616 36.877 51.0235 36.3316 50.504 36.0805C50.504 36.0805 51.1533 34.7559 49.8201 34.046C49.5041 33.8772 49.0842 33.8295 48.6297 33.8728H48.6383C48.9933 33.4746 49.4521 33.072 50.0105 32.756C51.2443 32.0591 51.5603 29.9293 49.2617 30.2929C47.2877 30.6089 46.1536 33.4529 45.8722 34.2494L45.8246 34.2581L45.712 34.2754L45.8246 34.2581C45.8939 33.6477 46.1752 31.782 47.067 30.6825C48.279 29.1847 46.6557 26.9814 44.7164 28.648C43.4091 29.7735 43.5347 34.5698 43.5347 34.5741C42.7901 35.0027 41.8378 35.2451 41.4785 36.4355C41.2317 37.258 41.5434 37.7385 41.9027 38.0112C42.604 40.3444 44.8073 40.0933 44.8073 40.0933C44.8073 40.0933 46.5388 42.6776 49.6253 42.907C49.6166 42.9027 52.1879 40.9418 51.0365 38.0068Z" fill="#FFD2B3"/>
<path d="M49.6339 42.9504H49.6165C46.6989 42.7339 44.9631 40.4007 44.7813 40.141C44.5172 40.1583 42.5216 40.2189 41.855 38.0372C41.513 37.7731 41.1667 37.2796 41.4264 36.4225C41.7251 35.4399 42.4048 35.0979 43.0671 34.7646C43.2099 34.691 43.3484 34.6218 43.4826 34.5482C43.474 34.111 43.409 29.7042 44.6817 28.6134C45.699 27.739 46.5777 27.9294 47.0582 28.4013C47.5777 28.9077 47.7681 29.8904 47.1015 30.7172C46.3093 31.6998 46.002 33.3145 45.8981 34.046C46.2834 33.0201 47.4002 30.5484 49.2529 30.254C50.478 30.0592 50.8459 30.5657 50.9541 30.8817C51.1749 31.518 50.755 32.3968 50.0321 32.8037C49.5689 33.0634 49.136 33.4097 48.7508 33.8209C49.1837 33.795 49.5559 33.8599 49.8373 34.0114C51.058 34.6607 50.6555 35.8252 50.5602 36.0632C51.0797 36.336 51.3048 36.8901 51.1966 37.6216C51.1792 37.7515 51.1403 37.8857 51.084 38.0112C52.2182 40.9375 49.6685 42.9244 49.6425 42.9417L49.6339 42.9504ZM44.8246 40.0414L44.8419 40.0674C44.8592 40.0934 46.5907 42.6257 49.6036 42.8551C49.8027 42.695 52.0537 40.799 51.0104 38.0675L50.9585 38.0805L50.9974 37.9896C51.0537 37.864 51.0883 37.7342 51.11 37.6043C51.2139 36.8987 50.9931 36.3706 50.4866 36.1239L50.3827 36.0719L50.4736 36.0416C50.5429 35.8858 51.0018 34.7256 49.8027 34.0893C49.5126 33.9335 49.1101 33.8772 48.6382 33.9205L48.6296 33.8599L48.6036 33.8382C49.0192 33.3751 49.4823 32.9985 49.9888 32.7128C50.6598 32.3318 51.071 31.4877 50.8676 30.9076C50.6901 30.4055 50.123 30.2064 49.2702 30.3406C47.3353 30.6479 46.2141 33.4227 45.9154 34.2668L45.9068 34.2928L45.7163 34.3187L45.7033 34.2235L45.7812 34.2149C45.8548 33.6088 46.1405 31.7474 47.0279 30.6479C47.6599 29.8644 47.4824 28.938 46.9933 28.4619C46.5388 28.0203 45.712 27.8472 44.7466 28.6783C43.4696 29.7735 43.5822 34.5222 43.5822 34.5698V34.6001L43.5562 34.6131C43.4134 34.6953 43.2619 34.7733 43.1147 34.8469C42.4697 35.1715 41.8074 35.5048 41.5217 36.4485C41.3225 37.1065 41.4611 37.6173 41.9286 37.9723L41.9416 37.9809L41.9459 37.9939C42.6255 40.2622 44.7813 40.0458 44.8029 40.0414H44.8246Z" fill="#4D0D4F"/>
<g opacity="0.6">
<g opacity="0.6">
<path opacity="0.6" d="M50.9543 36.4702C50.9196 36.587 50.885 36.6563 50.885 36.6563C50.9673 36.6953 51.0408 36.7429 51.1101 36.7991C51.0711 36.6779 51.0192 36.5654 50.9543 36.4702Z" fill="white"/>
</g>
</g>
<g opacity="0.6">
<g opacity="0.6">
<path opacity="0.6" d="M46.2012 34.8296L46.0886 34.8469L46.2012 34.8296Z" fill="white"/>
</g>
</g>
<g opacity="0.6">
<g opacity="0.6">
<path opacity="0.6" d="M50.2009 34.6218C50.3568 34.704 50.4823 34.7949 50.5862 34.8901C50.4866 34.5871 50.2615 34.2841 49.82 34.0504C49.7334 34.0027 49.6382 33.9681 49.5386 33.9378C49.3481 34.1023 49.175 34.2755 49.0192 34.4486H49.0105C49.465 34.4053 49.8849 34.4529 50.2009 34.6218Z" fill="white"/>
</g>
</g>
<g opacity="0.6">
<g opacity="0.6">
<path opacity="0.6" d="M46.9328 32.0894C46.4393 33.1284 46.2575 34.3577 46.2056 34.8296L46.2532 34.8209C46.5346 34.0201 47.6687 31.1761 49.6426 30.8644C50.2486 30.7692 50.6729 30.8471 50.9456 31.0246C50.846 30.5008 50.3439 30.1198 49.2574 30.2887C48.2747 30.4488 47.4955 31.241 46.9328 32.0894Z" fill="white"/>
</g>
</g>
<g opacity="0.6">
<g opacity="0.6">
<path opacity="0.6" d="M41.8551 37.0069C42.2144 35.8165 43.1667 35.5741 43.9113 35.1456C43.9113 35.1412 43.7814 30.3406 45.0931 29.2194C46.0151 28.4272 46.8679 28.5095 47.3787 28.977C47.0454 28.0896 45.9415 27.5874 44.7121 28.6437C43.4048 29.7692 43.5304 34.5655 43.5304 34.5698C42.7858 34.9984 41.8335 35.2408 41.4742 36.4312C41.2447 37.1974 41.4958 37.6649 41.8248 37.9463C41.7469 37.6996 41.7382 37.3922 41.8551 37.0069Z" fill="white"/>
</g>
</g>
<g opacity="0.6">
<g opacity="0.6">
<path opacity="0.6" d="M41.998 38.2969C42.1366 38.6562 42.3141 38.942 42.5132 39.1757C42.4223 38.9982 42.3444 38.8034 42.2794 38.5826C42.1755 38.5047 42.0803 38.4095 41.998 38.2969Z" fill="white"/>
</g>
</g>
<g opacity="0.35">
<g opacity="0.35">
<g opacity="0.35">
<path opacity="0.35" d="M51.0365 38.0069C51.0927 37.8814 51.1317 37.7472 51.1533 37.6087C51.2053 37.2667 51.175 36.968 51.0798 36.7169C50.517 37.2537 49.6339 37.9117 48.7638 37.7948C47.331 37.6043 47.4219 36.5308 47.4219 36.5308C47.4219 36.5308 46.8635 37.0762 46.357 36.5308C45.8506 35.9854 45.9112 35.4746 45.9112 35.4746L47.4479 34.1586C47.4479 34.1586 47.4349 33.3664 46.4869 32.8426C46.1752 33.4314 45.9718 33.9681 45.8722 34.2495L45.8246 34.2582C45.8592 33.9551 45.9458 33.3491 46.1319 32.6781C45.7164 32.518 45.1666 32.4098 44.4437 32.4011C44.1104 32.3968 43.8377 32.3059 43.6212 32.1587C43.5044 33.4487 43.5347 34.5698 43.5347 34.5742C42.7901 35.0027 41.8378 35.2451 41.4785 36.4355C41.2317 37.258 41.5434 37.7385 41.9027 38.0112C42.604 40.3445 44.8073 40.0934 44.8073 40.0934C44.8073 40.0934 46.5388 42.6777 49.6253 42.9071C49.6166 42.9028 52.1879 40.9418 51.0365 38.0069Z" fill="#6C174D"/>
</g>
</g>
<g opacity="0.35">
<g opacity="0.35">
<path opacity="0.35" d="M49.6339 42.9504H49.6165C46.6989 42.7339 44.9631 40.4007 44.7813 40.141C44.5172 40.1583 42.5216 40.2189 41.855 38.0372C41.513 37.7731 41.1667 37.2796 41.4264 36.4225C41.7251 35.4399 42.4048 35.0979 43.0671 34.7646C43.2099 34.691 43.3484 34.6218 43.4826 34.5482C43.4783 34.362 43.4653 33.3188 43.5692 32.1587L43.5779 32.0764L43.6471 32.124C43.8636 32.2755 44.1319 32.3535 44.4436 32.3578C45.1103 32.3664 45.6817 32.4617 46.1492 32.6392L46.1881 32.6565L46.1751 32.6998C46.028 33.2279 45.9457 33.717 45.8981 34.046C46.0106 33.7473 46.1925 33.3058 46.4435 32.8296L46.4652 32.7863L46.5085 32.808C47.4695 33.3361 47.4954 34.1326 47.4954 34.1629V34.1845L45.9587 35.5005C45.9544 35.5914 45.963 36.0373 46.3959 36.5005C46.5301 36.6476 46.6859 36.7256 46.8504 36.7299C47.1491 36.7385 47.3915 36.5048 47.3959 36.5005L47.4868 36.4095L47.4781 36.5351C47.4738 36.5784 47.4089 37.5653 48.7768 37.7471C49.6165 37.8597 50.478 37.2277 51.0537 36.6823L51.1057 36.6346L51.1316 36.7039C51.2312 36.968 51.2572 37.2753 51.2052 37.6216C51.1879 37.7515 51.1489 37.8813 51.0927 38.0112C52.2268 40.9375 49.6771 42.9244 49.6512 42.9417L49.6339 42.9504ZM44.8246 40.0414L44.8419 40.0674C44.8592 40.0934 46.5907 42.6257 49.6036 42.8551C49.8027 42.695 52.0537 40.799 51.0104 38.0675L50.9585 38.0805L50.9974 37.9896C51.0537 37.864 51.0883 37.7342 51.11 37.6043C51.1533 37.3056 51.1403 37.0372 51.0667 36.8035C50.478 37.3532 49.6165 37.9549 48.7681 37.8467C47.5733 37.6909 47.4045 36.9203 47.3872 36.6346C47.2833 36.7126 47.0799 36.8294 46.8548 36.8251C46.6643 36.8208 46.4868 36.7342 46.3353 36.5654C45.8202 36.0113 45.8721 35.4918 45.8765 35.4702V35.4529L45.8894 35.4399L47.4089 34.1369C47.3959 34.0114 47.305 33.3621 46.5171 32.9075C46.2184 33.4833 46.0193 34.0027 45.9284 34.2668L45.9197 34.2928L45.7812 34.3101L45.7899 34.2495C45.8245 33.9508 45.9068 33.3621 46.0842 32.7041C45.6384 32.5396 45.0886 32.453 44.4523 32.4444C44.1536 32.44 43.8939 32.3708 43.6731 32.2366C43.5692 33.453 43.5908 34.5179 43.5952 34.5655V34.5958L43.5692 34.6131C43.4263 34.6953 43.2748 34.7733 43.1277 34.8469C42.4827 35.1715 41.8204 35.5048 41.5347 36.4485C41.3355 37.1065 41.4741 37.6173 41.9416 37.9722L41.9546 37.9809L41.9589 37.9939C42.6385 40.2622 44.7943 40.0457 44.8159 40.0414H44.8246Z" fill="#4D0D4F"/>
</g>
</g>
</g>
<path d="M17.8338 32.2182C19.4169 31.6827 20.1892 29.7377 19.5588 27.8738C18.9283 26.0099 17.134 24.933 15.5509 25.4685C13.9679 26.0039 13.1956 27.9489 13.826 29.8128C14.4564 31.6767 16.2508 32.7536 17.8338 32.2182Z" fill="#FFD2B3"/>
<path d="M16.9949 32.4011C16.4711 32.4011 15.943 32.2496 15.4495 31.9552C14.6833 31.4963 14.0903 30.7388 13.7829 29.8297C13.4756 28.9164 13.4886 27.9597 13.8176 27.1286C14.1509 26.2931 14.7612 25.6914 15.5404 25.4273C17.1464 24.8862 18.9732 25.9771 19.6095 27.8601C19.9168 28.7735 19.9039 29.7302 19.5749 30.5613C19.2415 31.3968 18.6312 31.9985 17.852 32.2625C17.5706 32.3578 17.2849 32.4011 16.9949 32.4011ZM16.3889 25.3797C16.1118 25.3797 15.8391 25.423 15.5707 25.5139C14.8175 25.7693 14.2288 26.3537 13.9085 27.1589C13.5881 27.9684 13.5751 28.9034 13.8782 29.7951C14.1812 30.6868 14.7569 31.4227 15.5058 31.8686C16.2503 32.3145 17.0771 32.4227 17.826 32.1673C18.5792 31.9119 19.168 31.3275 19.4883 30.5224C19.8086 29.7129 19.8216 28.7778 19.5186 27.8861C18.9991 26.371 17.7005 25.3797 16.3889 25.3797Z" fill="#4D0D4F"/>
<g opacity="0.35">
<g opacity="0.35">
<path opacity="0.35" d="M19.0458 32.218C20.6288 31.6826 21.4011 29.7376 20.7707 27.8737C20.1403 26.0098 18.3459 24.9329 16.7629 25.4683C15.1798 26.0038 14.4075 27.9488 15.0379 29.8127C15.6684 31.6765 17.4627 32.7535 19.0458 32.218Z" fill="#4D0D4F"/>
</g>
</g>
<path d="M16.9905 32.7258C16.4104 32.7258 15.826 32.5613 15.2806 32.2323C14.4495 31.7345 13.8088 30.9163 13.4755 29.9337C13.1422 28.951 13.1551 27.9121 13.5144 27.0074C13.8824 26.0854 14.562 25.4144 15.4321 25.12C17.2069 24.5183 19.2155 25.7044 19.9081 27.7563C20.2414 28.7389 20.2284 29.7778 19.8691 30.6826C19.5012 31.6046 18.8215 32.2756 17.9515 32.5699C17.6398 32.6738 17.3151 32.7258 16.9905 32.7258ZM16.3888 25.7044C16.1463 25.7044 15.9039 25.7434 15.6702 25.8213C15.0079 26.0464 14.4884 26.5615 14.2027 27.2801C13.9084 28.0203 13.8997 28.8774 14.1767 29.6956C14.4538 30.5137 14.9819 31.189 15.6615 31.5959C16.3238 31.9942 17.0511 32.0894 17.7134 31.8643C18.3757 31.6392 18.8951 31.1241 19.1808 30.4055C19.4752 29.6653 19.4839 28.8082 19.2068 27.99C18.7393 26.6091 17.5662 25.7044 16.3888 25.7044Z" fill="#4D0D4F"/>
<path d="M42.9164 29.8113C43.5468 27.9474 42.7746 26.0024 41.1915 25.467C39.6085 24.9315 37.8141 26.0085 37.1837 27.8723C36.5533 29.7362 37.3256 31.6812 38.9086 32.2167C40.4917 32.7521 42.286 31.6752 42.9164 29.8113Z" fill="#FFD2B3"/>
<path d="M39.7515 32.4011C39.4615 32.4011 39.1758 32.3535 38.8944 32.2583C38.1152 31.9942 37.5049 31.3925 37.1716 30.557C36.8426 29.7259 36.8296 28.7649 37.1369 27.8558C37.4443 26.9468 38.0373 26.1893 38.8035 25.7304C39.5741 25.2672 40.4268 25.159 41.206 25.4231C41.9852 25.6871 42.5956 26.2888 42.9289 27.1243C43.2579 27.9554 43.2709 28.9164 42.9635 29.8255C42.6562 30.7388 42.0631 31.4921 41.2969 31.9509C40.7991 32.2496 40.271 32.4011 39.7515 32.4011ZM40.3489 25.3798C39.8424 25.3798 39.3316 25.5269 38.8511 25.8126C38.1023 26.2628 37.5265 26.9987 37.2235 27.8861C36.9205 28.7779 36.9335 29.7129 37.2538 30.5224C37.5741 31.3276 38.1672 31.9119 38.9161 32.1673C39.6693 32.4227 40.4918 32.3145 41.2363 31.8687C41.9852 31.4185 42.5609 30.6826 42.864 29.7952C43.167 28.9034 43.154 27.9684 42.8337 27.1589C42.5133 26.3538 41.9203 25.7694 41.1714 25.514C40.9073 25.4231 40.6303 25.3798 40.3489 25.3798Z" fill="#4D0D4F"/>
<g opacity="0.35">
<g opacity="0.35">
<path opacity="0.35" d="M41.7133 29.8121C42.3437 27.9482 41.5715 26.0032 39.9884 25.4678C38.4054 24.9323 36.611 26.0093 35.9806 27.8731C35.3502 29.737 36.1224 31.682 37.7055 32.2175C39.2885 32.7529 41.0829 31.676 41.7133 29.8121Z" fill="#4D0D4F"/>
</g>
</g>
<path d="M39.7512 32.7258C39.4266 32.7258 39.1019 32.6738 38.7902 32.5656C37.9202 32.2712 37.2405 31.6003 36.8726 30.6783C36.5133 29.7779 36.5003 28.7389 36.8336 27.752C37.1669 26.7693 37.8076 25.9512 38.6387 25.4534C39.4915 24.9426 40.4395 24.8214 41.3096 25.1157C42.1797 25.4101 42.8593 26.0811 43.2273 27.0031C43.5866 27.9035 43.5996 28.9424 43.2662 29.9294C42.9329 30.912 42.2923 31.7301 41.4611 32.228C40.9157 32.5569 40.327 32.7258 39.7512 32.7258ZM40.3486 25.7045C39.9028 25.7045 39.4439 25.8343 39.0154 26.0941C38.3357 26.501 37.8076 27.1806 37.5306 27.9944C37.2535 28.8125 37.2622 29.6696 37.5565 30.4099C37.8422 31.1284 38.3617 31.6479 39.024 31.8687C39.6863 32.0938 40.4136 31.9985 41.0759 31.6003C41.7555 31.1934 42.2836 30.5138 42.5606 29.6999C42.8377 28.8818 42.829 28.0247 42.5347 27.2845C42.249 26.5659 41.7295 26.0464 41.0672 25.8257C40.8378 25.7434 40.5954 25.7045 40.3486 25.7045Z" fill="#4D0D4F"/>
<path d="M28.2193 37.587C35.1978 37.587 40.8551 31.9298 40.8551 24.9512C40.8551 17.9727 35.1978 12.3154 28.2193 12.3154C21.2407 12.3154 15.5835 17.9727 15.5835 24.9512C15.5835 31.9298 21.2407 37.587 28.2193 37.587Z" fill="#FFD2B3"/>
<path d="M31.1327 25.1374C31.1457 24.9902 31.1717 24.8604 31.2106 24.7305C31.2496 24.6006 31.3015 24.4751 31.3621 24.3496C31.4833 24.1028 31.6522 23.8691 31.86 23.6699C31.9595 23.566 32.0807 23.4795 32.1976 23.3929C32.3231 23.315 32.453 23.2327 32.5915 23.1808C32.7257 23.1158 32.8729 23.0812 33.0201 23.0423C33.0937 23.0206 33.1673 23.0163 33.2408 23.0076C33.3144 22.999 33.3924 22.986 33.4616 22.986C34.0157 22.96 34.6001 23.0682 35.0979 23.3453C35.349 23.4795 35.5697 23.6569 35.7602 23.8604C35.8554 23.96 35.9377 24.0725 36.0113 24.1851C36.0849 24.3019 36.1455 24.4188 36.1974 24.5617C36.232 24.6526 36.1844 24.7565 36.0935 24.7868C36.0373 24.8084 35.9723 24.7954 35.929 24.7608L35.9031 24.7391C35.8208 24.6785 35.7256 24.605 35.6303 24.5444C35.5827 24.514 35.5351 24.4837 35.4875 24.4578C35.4399 24.4318 35.3923 24.4015 35.3446 24.3755C35.1498 24.276 34.9551 24.1937 34.7559 24.1374C34.3577 24.0206 33.9464 23.9946 33.5309 24.0249C33.4746 24.0249 33.4356 24.0379 33.388 24.0422C33.3404 24.0509 33.2928 24.0509 33.2495 24.0639C33.1586 24.0855 33.0677 24.1071 32.9811 24.1374C32.8902 24.1634 32.808 24.2067 32.7171 24.2413C32.6348 24.289 32.5439 24.3279 32.4617 24.3885C32.2928 24.4967 32.124 24.6223 31.9595 24.7694C31.795 24.9166 31.6305 25.0898 31.4747 25.2543L31.4574 25.2759C31.3881 25.3495 31.2756 25.3495 31.202 25.2802C31.1457 25.2456 31.1284 25.1893 31.1327 25.1374Z" fill="#4D0D4F"/>
<path d="M25.4706 25.3322C25.3147 25.159 25.1589 24.9816 24.9987 24.8301C24.8386 24.6785 24.6741 24.5444 24.5096 24.4318C24.4273 24.3712 24.3407 24.3279 24.2585 24.276C24.1676 24.237 24.0897 24.1894 23.9988 24.1634C23.9122 24.1245 23.8213 24.1071 23.7304 24.0812C23.6871 24.0682 23.6395 24.0639 23.5919 24.0552C23.5442 24.0465 23.5009 24.0336 23.449 24.0336C23.0334 23.9903 22.6222 24.0033 22.2196 24.1071C22.0162 24.1548 21.817 24.2327 21.6222 24.3279C21.5703 24.3496 21.527 24.3799 21.4751 24.4015C21.4274 24.4275 21.3798 24.4578 21.3279 24.4837C21.2326 24.54 21.1331 24.6093 21.0508 24.6699L21.0249 24.6872C20.9469 24.7435 20.8344 24.7262 20.7781 24.6439C20.7435 24.592 20.7392 24.5314 20.7565 24.4751C20.8127 24.3322 20.8777 24.2197 20.9556 24.1071C21.0335 23.9946 21.1201 23.8864 21.2197 23.7911C21.4145 23.5963 21.6439 23.4232 21.8993 23.2977C22.4058 23.0379 22.9945 22.9514 23.5486 22.9946C23.6178 22.9946 23.6957 23.012 23.765 23.0249C23.8386 23.0379 23.9122 23.0423 23.9858 23.0682C24.1286 23.1115 24.2758 23.1505 24.41 23.2197C24.5485 23.276 24.6741 23.3626 24.7996 23.4448C24.9165 23.5357 25.0333 23.6266 25.1286 23.7349C25.3277 23.9426 25.4879 24.1807 25.6004 24.4318C25.6567 24.5573 25.7043 24.6872 25.7389 24.8171C25.7736 24.9513 25.7952 25.0811 25.8039 25.2283C25.8082 25.3279 25.7346 25.4144 25.6351 25.4188C25.5788 25.4231 25.5268 25.3971 25.4922 25.3582L25.4706 25.3322Z" fill="#4D0D4F"/>
<g opacity="0.6">
<g opacity="0.6">
<path opacity="0.6" d="M16.09 27.0637C16.09 20.367 21.5183 14.9344 28.2193 14.9344C34.9203 14.9344 40.3486 20.3627 40.3486 27.0637C40.3486 27.7173 40.2966 28.3536 40.1971 28.977C40.6213 27.713 40.8551 26.3581 40.8551 24.9469C40.8551 17.9688 35.1973 12.3111 28.2193 12.3111C21.2412 12.3111 15.5835 17.9732 15.5835 24.9512C15.5835 26.3624 15.8129 27.7173 16.2415 28.9813C16.1419 28.3536 16.09 27.7173 16.09 27.0637Z" fill="white"/>
</g>
</g>
<path d="M28.2193 37.6303C21.2283 37.6303 15.5359 31.9422 15.5359 24.9469C15.5359 17.9515 21.2239 12.2635 28.2193 12.2635C35.2103 12.2635 40.9027 17.9515 40.9027 24.9469C40.9027 31.9422 35.2103 37.6303 28.2193 37.6303ZM28.2193 12.3631C21.2802 12.3631 15.6311 18.0078 15.6311 24.9512C15.6311 31.8946 21.2759 37.5394 28.2193 37.5394C35.1627 37.5394 40.8075 31.8946 40.8075 24.9512C40.8075 18.0078 35.1584 12.3631 28.2193 12.3631Z" fill="#4D0D4F"/>
<path d="M28.4177 29.7297C28.4177 29.7297 29.9285 31.9807 33.201 29.8856Z" fill="white"/>
<path d="M30.6177 30.8211C29.1155 30.8211 28.3883 29.7735 28.3796 29.7562L28.4576 29.7043C28.5182 29.7952 29.9856 31.8903 33.176 29.8428L33.2279 29.9251C32.1847 30.5917 31.3189 30.8211 30.6177 30.8211Z" fill="#4D0D4F"/>
<path d="M28.2193 37.955C21.0465 37.955 15.2156 32.1197 15.2156 24.9512C15.2156 17.7827 21.0508 11.9475 28.2193 11.9475C35.3878 11.9475 41.223 17.7827 41.223 24.9512C41.223 32.1197 35.3878 37.955 28.2193 37.955ZM28.2193 12.6834C21.4577 12.6834 15.9558 18.1853 15.9558 24.9469C15.9558 31.7085 21.4577 37.2104 28.2193 37.2104C34.9809 37.2104 40.4828 31.7085 40.4828 24.9469C40.4828 18.1853 34.9809 12.6834 28.2193 12.6834Z" fill="#4D0D4F"/>
<path d="M16.0901 18.9991C16.0901 18.9991 13.1292 15.6486 17.1549 11.112C21.1807 6.57546 26.7822 7.8741 26.7822 7.8741L25.1156 10.0039C25.1156 10.0039 33.4919 5.97809 39.8336 11.7181L37.5653 12.9215C37.5653 12.9215 41.1885 15.4192 43.1364 15.0513C43.1364 15.0513 42.2707 18.3238 38.5393 19.2459C38.5393 19.2415 31.4746 12.8609 16.0901 18.9991Z" fill="#4D0D4F"/>
<g opacity="0.35">
<g opacity="0.35">
<path opacity="0.35" d="M41.2231 14.8002C41.2924 14.8219 41.366 14.8478 41.4352 14.8652C41.3617 14.8435 41.2924 14.8219 41.2231 14.8002Z" fill="#4D0D4F"/>
</g>
</g>
<g opacity="0.35">
<g opacity="0.35">
<path opacity="0.35" d="M41.4873 14.8781C41.5393 14.8954 41.5912 14.9084 41.6432 14.9214C41.5912 14.9084 41.5393 14.8954 41.4873 14.8781Z" fill="#4D0D4F"/>
</g>
</g>
<g opacity="0.35">
<g opacity="0.35">
<path opacity="0.35" d="M41.7166 14.9431C41.7642 14.956 41.8118 14.9647 41.8551 14.9777C41.8118 14.9647 41.7642 14.956 41.7166 14.9431Z" fill="#4D0D4F"/>
</g>
</g>
<g opacity="0.35">
<g opacity="0.35">
<path opacity="0.35" d="M41.0068 14.7223C41.0631 14.7439 41.1237 14.7612 41.18 14.7829C41.1237 14.7656 41.0631 14.7439 41.0068 14.7223Z" fill="#4D0D4F"/>
</g>
</g>
<g opacity="0.35">
<g opacity="0.35">
<path opacity="0.35" d="M41.9287 14.9907C41.9807 14.9993 42.0283 15.0123 42.0802 15.021C42.0283 15.0123 41.9807 15.0036 41.9287 14.9907Z" fill="#4D0D4F"/>
</g>
</g>
<g opacity="0.35">
<g opacity="0.35">
<path opacity="0.35" d="M40.0803 14.3413C40.1496 14.3716 40.2145 14.4019 40.2838 14.4322C40.2145 14.4019 40.1496 14.3716 40.0803 14.3413Z" fill="#4D0D4F"/>
</g>
</g>
<g opacity="0.35">
<g opacity="0.35">
<path opacity="0.35" d="M40.2925 14.4366C40.3617 14.4669 40.431 14.4972 40.5046 14.5275C40.431 14.4972 40.3617 14.4669 40.2925 14.4366Z" fill="#4D0D4F"/>
</g>
</g>
<g opacity="0.35">
<g opacity="0.35">
<path opacity="0.35" d="M40.5652 14.5535C40.6171 14.5751 40.6647 14.5968 40.7167 14.6141C40.6647 14.5924 40.6128 14.5751 40.5652 14.5535Z" fill="#4D0D4F"/>
</g>
</g>
<g opacity="0.35">
<g opacity="0.35">
<path opacity="0.35" d="M40.7903 14.6443C40.8379 14.6617 40.8898 14.6833 40.9375 14.7006C40.8855 14.679 40.8379 14.6617 40.7903 14.6443Z" fill="#4D0D4F"/>
</g>
</g>
<g opacity="0.35">
<g opacity="0.35">
<path opacity="0.35" d="M43.1062 15.1412C43.1104 15.1242 43.1147 15.1073 43.1189 15.0945C43.1189 15.1073 43.1104 15.12 43.1062 15.1412Z" fill="#4D0D4F"/>
</g>
</g>
<g opacity="0.35">
<g opacity="0.35">
<path opacity="0.35" d="M42.7166 15.0815C42.6733 15.0815 42.6344 15.0815 42.5911 15.0772C42.6344 15.0815 42.6733 15.0815 42.7166 15.0815Z" fill="#4D0D4F"/>
</g>
</g>
<g opacity="0.35">
<g opacity="0.35">
<path opacity="0.35" d="M43.1365 15.0469C43.0803 15.0556 43.024 15.0643 42.9634 15.0729C43.024 15.0643 43.0803 15.0556 43.1365 15.0469Z" fill="#4D0D4F"/>
</g>
</g>
<g opacity="0.35">
<g opacity="0.35">
<path opacity="0.35" d="M42.1323 15.0296C42.2016 15.0426 42.2665 15.0512 42.3314 15.0599C42.2665 15.0512 42.2016 15.0426 42.1323 15.0296Z" fill="#4D0D4F"/>
</g>
</g>
<g opacity="0.35">
<g opacity="0.35">
<path opacity="0.35" d="M43.1063 15.1422C43.0197 15.4149 42.7167 16.2157 42.0327 17.0555C42.721 16.2157 43.0197 15.4105 43.1063 15.1422Z" fill="#4D0D4F"/>
</g>
</g>
<g opacity="0.35">
<g opacity="0.35">
<path opacity="0.35" d="M42.907 15.0729C42.8637 15.0772 42.8248 15.0772 42.7815 15.0815C42.8248 15.0815 42.8681 15.0772 42.907 15.0729Z" fill="#4D0D4F"/>
</g>
</g>
<g opacity="0.35">
<g opacity="0.35">
<path opacity="0.35" d="M42.366 15.0643C42.4179 15.0686 42.4742 15.0729 42.5262 15.0773C42.4742 15.0729 42.4223 15.0686 42.366 15.0643Z" fill="#4D0D4F"/>
</g>
</g>
<g opacity="0.35">
<g opacity="0.35">
<path opacity="0.35" d="M39.8726 14.2418C39.9202 14.2634 39.9678 14.285 40.0154 14.311C39.9678 14.2894 39.9202 14.2677 39.8726 14.2418Z" fill="#4D0D4F"/>
</g>
</g>
<g opacity="0.35">
<g opacity="0.35">
<path opacity="0.35" d="M43.1235 15.0853C43.1235 15.0812 43.1277 15.077 43.1277 15.0729C43.1277 15.0729 43.1235 15.0812 43.1235 15.0853Z" fill="#4D0D4F"/>
</g>
</g>
<g opacity="0.35">
<g opacity="0.35">
<path opacity="0.35" d="M37.9246 13.1509C37.9549 13.1683 37.9852 13.1899 38.0198 13.2115C37.9852 13.1899 37.9549 13.1726 37.9246 13.1509Z" fill="#4D0D4F"/>
</g>
</g>
<g opacity="0.35">
<g opacity="0.35">
<path opacity="0.35" d="M25.6133 10.3931C25.6094 10.3892 25.6094 10.3892 25.6133 10.3931C25.6094 10.3892 25.6094 10.3892 25.6133 10.3931Z" fill="#4D0D4F"/>
</g>
</g>
<g opacity="0.35">
<g opacity="0.35">
<path opacity="0.35" d="M38.6692 13.6055C38.7081 13.6271 38.7514 13.6531 38.7904 13.6747C38.7514 13.6488 38.7125 13.6271 38.6692 13.6055Z" fill="#4D0D4F"/>
</g>
</g>
<g opacity="0.35">
<g opacity="0.35">
<path opacity="0.35" d="M38.8511 13.7094C38.89 13.731 38.929 13.7526 38.968 13.7743C38.929 13.7526 38.89 13.731 38.8511 13.7094Z" fill="#4D0D4F"/>
</g>
</g>
<g opacity="0.35">
<g opacity="0.35">
<path opacity="0.35" d="M38.1929 13.3198C38.2189 13.3371 38.2492 13.3544 38.2751 13.3717C38.2448 13.3501 38.2189 13.3327 38.1929 13.3198Z" fill="#4D0D4F"/>
</g>
</g>
<g opacity="0.35">
<g opacity="0.35">
<path opacity="0.35" d="M38.0632 13.2375C38.0892 13.2548 38.1152 13.2678 38.1412 13.2851C38.1152 13.2678 38.0892 13.2548 38.0632 13.2375Z" fill="#4D0D4F"/>
</g>
</g>
<g opacity="0.35">
<g opacity="0.35">
<path opacity="0.35" d="M38.4744 13.4886C38.522 13.5189 38.574 13.5492 38.6259 13.5795C38.574 13.5492 38.522 13.5189 38.4744 13.4886Z" fill="#4D0D4F"/>
</g>
</g>
<g opacity="0.35">
<g opacity="0.35">
<path opacity="0.35" d="M38.3271 13.402C38.3618 13.4236 38.3964 13.4409 38.431 13.4626C38.3964 13.4409 38.3618 13.4193 38.3271 13.402Z" fill="#4D0D4F"/>
</g>
</g>
<g opacity="0.35">
<g opacity="0.35">
<path opacity="0.35" d="M39.1629 13.8782C39.1196 13.8565 39.0763 13.8305 39.033 13.8089C39.0763 13.8305 39.1196 13.8565 39.1629 13.8782Z" fill="#4D0D4F"/>
</g>
</g>
<g opacity="0.35">
<g opacity="0.35">
<path opacity="0.35" d="M39.2146 13.9084C39.2752 13.9431 39.3401 13.9734 39.4051 14.008C39.3401 13.9734 39.2795 13.9431 39.2146 13.9084Z" fill="#4D0D4F"/>
</g>
</g>
<g opacity="0.3">
<g opacity="0.3">
<path opacity="0.3" d="M42.656 15.7136C40.7124 16.0859 37.0849 13.5838 37.0849 13.5838L37.9117 13.1423C37.6909 12.9994 37.561 12.9128 37.561 12.9128L39.0545 12.1207C37.3965 10.7138 35.6131 9.94328 33.8859 9.57533C31.9639 9.16842 29.9683 9.255 28.0723 9.77446L25.6568 10.4324C26.6308 11.3848 27.726 13.9041 16.3845 16.5664L16.6269 16.7179L20.4882 17.5014C30.9726 14.5924 36.6736 17.8823 38.1454 18.9342L39.5826 18.8866C40.6994 18.4148 41.4873 17.7178 42.0284 17.0512C42.5002 16.3066 42.656 15.7136 42.656 15.7136Z" fill="#4D0D4F"/>
</g>
</g>
<g opacity="0.35">
<g opacity="0.35">
<path opacity="0.35" d="M39.4353 14.0253C39.4916 14.0556 39.5435 14.0816 39.5998 14.1119C39.5435 14.0816 39.4872 14.0513 39.4353 14.0253Z" fill="#4D0D4F"/>
</g>
</g>
<g opacity="0.35">
<g opacity="0.35">
<path opacity="0.35" d="M39.6648 14.1422C39.7124 14.1639 39.7557 14.1898 39.8033 14.2115C39.7557 14.1855 39.7081 14.1639 39.6648 14.1422Z" fill="#4D0D4F"/>
</g>
</g>
<path d="M29.0547 16.3413C35.3877 16.5361 38.3833 19.2372 38.3833 19.2372C38.7512 19.1463 39.0845 19.0338 39.4005 18.9039C38.2664 18.1074 34.8899 16.1681 29.0547 16.3413Z" fill="white"/>
<g opacity="0.6">
<g opacity="0.6">
<path opacity="0.6" d="M18.4535 11.1121C20.7218 8.55806 23.4922 7.85247 25.4748 7.7226C23.6221 7.60139 19.9036 7.83948 17.0033 11.1121C12.9776 15.6486 15.9385 18.9991 15.9385 18.9991C16.3237 18.8433 16.7046 18.7005 17.0813 18.5619C16.4449 17.5144 15.2891 14.679 18.4535 11.1121Z" fill="white"/>
</g>
</g>
<path d="M38.5394 19.6095C38.4485 19.6095 38.362 19.5749 38.2927 19.5142C38.2754 19.5013 36.5222 17.9559 32.9509 17.1637C29.6437 16.4321 24.0596 16.2157 16.2331 19.3368C16.0859 19.393 15.9214 19.3541 15.8175 19.2372C15.7829 19.1982 15.0037 18.3022 14.7526 16.8131C14.5232 15.4538 14.705 13.3154 16.8824 10.861C19.0382 8.43251 21.6354 7.649 23.4362 7.41957C25.3842 7.17283 26.8084 7.49316 26.869 7.50615C26.9902 7.53645 27.0941 7.62303 27.133 7.74423C27.1763 7.86544 27.1547 7.9953 27.0768 8.09487L26.2456 9.15975C27.1547 8.85241 28.4923 8.48879 30.0636 8.33295C33.9466 7.94336 37.4139 9.0169 40.0848 11.4367C40.1757 11.519 40.219 11.6358 40.2017 11.757C40.1887 11.8782 40.1151 11.9821 40.0069 12.0384L38.2927 12.9475C39.5264 13.718 41.8034 14.9214 43.063 14.679C43.1886 14.6573 43.3184 14.6963 43.405 14.7915C43.4916 14.8824 43.5262 15.0166 43.4916 15.1378C43.4526 15.2807 42.5263 18.6312 38.626 19.6008C38.6 19.6095 38.5697 19.6095 38.5394 19.6095ZM28.5182 15.969C30.3753 15.969 31.925 16.1767 33.1631 16.4581C36.3274 17.168 38.1109 18.4277 38.626 18.8346C41.141 18.142 42.2103 16.3326 42.5912 15.4495C40.4874 15.3673 37.4919 13.3197 37.3533 13.2202C37.2451 13.1466 37.1845 13.021 37.1932 12.8955C37.2018 12.7656 37.2754 12.6488 37.388 12.5882L39.1801 11.6358C36.7083 9.58397 33.6739 8.72254 30.1545 9.06885C27.3625 9.34589 25.2933 10.3242 25.2716 10.3329C25.1158 10.4064 24.9297 10.3632 24.8214 10.229C24.7132 10.0948 24.7132 9.90431 24.8171 9.77011L26.1028 8.13815C25.5314 8.07322 24.5963 8.01695 23.4968 8.1598C21.0727 8.4758 19.0338 9.54934 17.4322 11.3545C14.1856 15.0123 15.6833 17.7914 16.2158 18.5489C21.2112 16.5923 25.3193 15.969 28.5182 15.969Z" fill="#4D0D4F"/>
<path d="M28.2193 18.1463C34.7471 18.1463 40.1148 20.8085 40.7815 24.224C41.5606 23.2976 41.9892 22.2673 41.9892 21.1851C41.9892 17.0944 35.8206 13.7786 28.2149 13.7786C20.6092 13.7786 14.4407 17.0944 14.4407 21.1851C14.4407 22.2673 14.8736 23.2976 15.6484 24.224C16.3237 20.8085 21.6914 18.1463 28.2193 18.1463Z" fill="#EFE7E1"/>
<g opacity="0.6">
<g opacity="0.6">
<path opacity="0.6" d="M28.4183 14.7569C35.6864 14.7569 41.6385 17.7871 42.1536 21.6224C42.1753 21.4449 42.1926 21.2674 42.1926 21.0856C42.1926 16.9949 36.024 13.679 28.4183 13.679C20.8126 13.679 14.644 16.9949 14.644 21.0856C14.644 21.2674 14.657 21.4449 14.683 21.6224C15.1981 17.7827 21.1502 14.7569 28.4183 14.7569Z" fill="white"/>
</g>
</g>
<g opacity="0.35">
<g opacity="0.35">
<path opacity="0.35" d="M14.692 21.8085C14.8954 22.3842 15.2201 22.934 15.6573 23.4534C16.3239 20.038 21.696 17.3758 28.2195 17.3758C34.7473 17.3758 40.1151 20.038 40.7817 23.4534C41.2189 22.934 41.5436 22.3799 41.747 21.8085C40.535 18.3844 34.9378 15.7958 28.2195 15.7958C21.38 15.7958 15.7049 18.4796 14.6313 21.9946C14.6487 21.934 14.666 21.8691 14.692 21.8085Z" fill="#4D0D4F"/>
</g>
</g>
<path d="M40.7815 24.5919C40.7512 24.5919 40.7209 24.5876 40.6906 24.579C40.5521 24.5443 40.4482 24.4318 40.4179 24.2933C40.1149 22.7522 38.7383 21.3107 36.535 20.2372C34.258 19.129 31.3058 18.5186 28.2193 18.5186C25.1329 18.5186 22.1807 19.129 19.9037 20.2372C17.7004 21.3107 16.3195 22.7522 16.0208 24.2933C15.9948 24.4318 15.8866 24.5443 15.7481 24.579C15.6095 24.6136 15.4624 24.566 15.3715 24.4578C14.51 23.4318 14.0771 22.328 14.0771 21.1808C14.0771 19.0597 15.5792 17.0815 18.3064 15.614C20.9599 14.1855 24.4836 13.402 28.2193 13.402C31.9594 13.402 35.4788 14.1898 38.1366 15.614C40.8638 17.0815 42.3659 19.0554 42.3659 21.1808C42.3659 22.328 41.9287 23.4318 41.0716 24.4578C40.9936 24.5443 40.8898 24.5919 40.7815 24.5919ZM28.2193 17.7741C34.4139 17.7741 39.656 20.1463 40.9287 23.4015C41.3919 22.6873 41.6213 21.9427 41.6213 21.1808C41.6213 19.3454 40.2578 17.6009 37.7817 16.2676C35.232 14.8954 31.8382 14.1422 28.2193 14.1422C24.6005 14.1422 21.2024 14.8954 18.657 16.2676C16.1809 17.6009 14.8174 19.3454 14.8174 21.1808C14.8174 21.9427 15.0511 22.6873 15.51 23.4015C16.7826 20.1463 22.0248 17.7741 28.2193 17.7741Z" fill="#4D0D4F"/>
<g opacity="0.35">
<g opacity="0.35">
<path opacity="0.35" d="M28.1199 34.5655C21.6527 34.5655 16.3239 29.7086 15.575 23.4405C15.5144 23.934 15.4841 24.4361 15.4841 24.9469C15.4841 31.9249 21.1419 37.5827 28.1199 37.5827C35.0979 37.5827 40.7557 31.9249 40.7557 24.9469C40.7557 24.4361 40.7254 23.934 40.6648 23.4405C39.9159 29.7086 34.5871 34.5655 28.1199 34.5655Z" fill="#4D0D4F"/>
</g>
</g>
<path d="M32.2453 29.7302L38.8467 52.2227H18.5706L24.5919 28.8428L32.2453 29.7302Z" fill="#FFCE00"/>
<g opacity="0.3">
<g opacity="0.3">
<path opacity="0.3" d="M34.2407 36.336C33.6519 36.8684 33.0156 37.3576 32.3446 37.7948C28.9985 39.9809 25.0376 41.0631 21.185 41.9591L19.1851 49.7293H38.1712L34.2407 36.336Z" fill="#4D0D4F"/>
</g>
</g>
<path d="M22.5401 52.4998C22.5271 52.4998 22.5141 52.4998 22.5011 52.4954C22.3496 52.4738 22.2414 52.3353 22.263 52.1838L25.2412 30.6653C25.2629 30.5138 25.4014 30.4056 25.5529 30.4272C25.7044 30.4488 25.8126 30.5874 25.791 30.7389L22.8128 52.2574C22.7955 52.4002 22.6786 52.4998 22.5401 52.4998Z" fill="#4D0D4F"/>
<path d="M26.8776 52.4997C26.8732 52.4997 26.8732 52.4997 26.8689 52.4997C26.7174 52.4954 26.5962 52.3699 26.5962 52.214L27.1373 30.5181C27.1416 30.3666 27.2672 30.2454 27.423 30.2454C27.5745 30.2497 27.6957 30.3752 27.6957 30.5311L27.1546 52.227C27.1503 52.3829 27.0247 52.4997 26.8776 52.4997Z" fill="#4D0D4F"/>
<path d="M31.3665 52.4997C31.2237 52.4997 31.1025 52.3915 31.0895 52.2443L29.2454 30.5916C29.2324 30.4401 29.345 30.3059 29.4965 30.293C29.6523 30.28 29.7822 30.3925 29.7952 30.544L31.6392 52.1967C31.6522 52.3482 31.5397 52.4824 31.3882 52.4954C31.3795 52.4997 31.3709 52.4997 31.3665 52.4997Z" fill="#4D0D4F"/>
<path d="M34.8685 52.4997C34.7343 52.4997 34.6174 52.4045 34.5958 52.2703L30.8081 30.8254C30.7821 30.6739 30.8817 30.5311 31.0332 30.5051C31.1847 30.4791 31.3275 30.5787 31.3535 30.7302L35.1412 52.1751C35.1672 52.3266 35.0677 52.4694 34.9161 52.4954C34.8988 52.4997 34.8815 52.4997 34.8685 52.4997Z" fill="#4D0D4F"/>
<path d="M38.8466 52.595H18.5705C18.458 52.595 18.3498 52.543 18.2762 52.4521C18.2069 52.3612 18.1809 52.2444 18.2112 52.1318L23.8733 30.1415C23.9253 29.9424 24.1244 29.8255 24.3235 29.8731C24.5226 29.925 24.6395 30.1242 24.5876 30.3233L19.0424 51.8504H38.3532L32.0634 30.4228C32.0071 30.2281 32.1197 30.0203 32.3145 29.964C32.5093 29.9077 32.7171 30.0203 32.7733 30.2151L39.2016 52.1145C39.2362 52.227 39.2146 52.3482 39.141 52.4391C39.0717 52.5387 38.9635 52.595 38.8466 52.595Z" fill="#4D0D4F"/>
<path d="M19.198 53.0322C22.3849 53.0322 24.9683 50.9429 24.9683 48.3657C24.9683 45.7885 22.3849 43.6993 19.198 43.6993C16.0112 43.6993 13.4277 45.7885 13.4277 48.3657C13.4277 50.9429 16.0112 53.0322 19.198 53.0322Z" fill="#FFCE00"/>
<path d="M19.1982 53.3135C15.8607 53.3135 13.1509 51.0972 13.1509 48.3701C13.1509 45.6429 15.865 43.4266 19.1982 43.4266C22.5314 43.4266 25.2456 45.6429 25.2456 48.3701C25.2499 51.0929 22.5357 53.3135 19.1982 53.3135ZM19.1982 43.9763C16.1681 43.9763 13.705 45.9459 13.705 48.3657C13.705 50.7855 16.1681 52.7551 19.1982 52.7551C22.2284 52.7551 24.6915 50.7855 24.6915 48.3657C24.6958 45.9459 22.2284 43.9763 19.1982 43.9763Z" fill="#4D0D4F"/>
<path d="M19.1981 51.7249C21.4932 51.7249 23.3538 50.221 23.3538 48.3657C23.3538 46.5105 21.4932 45.0066 19.1981 45.0066C16.903 45.0066 15.0425 46.5105 15.0425 48.3657C15.0425 50.221 16.903 51.7249 19.1981 51.7249Z" fill="#FFCE00"/>
<path d="M19.1983 52.0062C16.7525 52.0062 14.7656 50.3743 14.7656 48.37C14.7656 46.3658 16.7525 44.7338 19.1983 44.7338C21.6441 44.7338 23.631 46.3658 23.631 48.37C23.631 50.3743 21.6441 52.0062 19.1983 52.0062ZM19.1983 45.2836C17.0599 45.2836 15.3197 46.6645 15.3197 48.3657C15.3197 50.0669 17.0599 51.4478 19.1983 51.4478C21.3367 51.4478 23.0769 50.0669 23.0769 48.3657C23.0769 46.6688 21.3367 45.2836 19.1983 45.2836Z" fill="#4D0D4F"/>
<path d="M19.1981 50.4912C20.6493 50.4912 21.8257 49.5396 21.8257 48.3657C21.8257 47.1919 20.6493 46.2403 19.1981 46.2403C17.747 46.2403 16.5706 47.1919 16.5706 48.3657C16.5706 49.5396 17.747 50.4912 19.1981 50.4912Z" fill="#FFCE00"/>
<path d="M19.1981 50.7336C17.6181 50.7336 16.3281 49.673 16.3281 48.3701C16.3281 47.0671 17.6138 46.0065 19.1981 46.0065C20.7825 46.0065 22.0681 47.0671 22.0681 48.3701C22.0681 49.673 20.7825 50.7336 19.1981 50.7336ZM19.1981 46.4784C17.8822 46.4784 16.8086 47.3268 16.8086 48.3657C16.8086 49.4046 17.8822 50.2531 19.1981 50.2531C20.5141 50.2531 21.5876 49.4046 21.5876 48.3657C21.5919 47.3268 20.5184 46.4784 19.1981 46.4784Z" fill="#4D0D4F"/>
<path d="M19.1984 49.5561C20.0112 49.5561 20.6702 49.0232 20.6702 48.3657C20.6702 47.7083 20.0112 47.1753 19.1984 47.1753C18.3855 47.1753 17.7266 47.7083 17.7266 48.3657C17.7266 49.0232 18.3855 49.5561 19.1984 49.5561Z" fill="#FFCE00"/>
<g opacity="0.3">
<g opacity="0.3">
<path opacity="0.3" d="M24.6048 46.7295C24.6048 46.7295 23.5832 47.2922 22.6438 46.487C21.8993 45.591 20.6309 45.0066 19.1981 45.0066C17.8302 45.0066 16.6181 45.539 15.8606 46.3658C15.8606 46.3658 15.0251 47.2749 13.7092 46.9156C13.7092 46.9156 13.0469 48.0671 13.6486 49.6601C14.2503 51.2531 16.8865 53.4348 20.9599 52.1924C25.0333 50.95 25.2584 47.7424 24.6048 46.7295Z" fill="#4D0D4F"/>
</g>
</g>
<path d="M19.1982 49.7466C18.2804 49.7466 17.5359 49.1276 17.5359 48.3658C17.5359 47.6039 18.2804 46.9849 19.1982 46.9849C20.1159 46.9849 20.8604 47.6039 20.8604 48.3658C20.8647 49.1276 20.1159 49.7466 19.1982 49.7466ZM19.1982 47.3658C18.4926 47.3658 17.9168 47.816 17.9168 48.3658C17.9168 48.9155 18.4926 49.3657 19.1982 49.3657C19.9037 49.3657 20.4795 48.9155 20.4795 48.3658C20.4795 47.816 19.9081 47.3658 19.1982 47.3658Z" fill="#4D0D4F"/>
<path d="M27.8776 53.0192C31.5856 53.0192 34.5915 50.7555 34.5915 47.9631C34.5915 45.1708 31.5856 42.9071 27.8776 42.9071C24.1695 42.9071 21.1636 45.1708 21.1636 47.9631C21.1636 50.7555 24.1695 53.0192 27.8776 53.0192Z" fill="#FFCE00"/>
<g opacity="0.3">
<g opacity="0.3">
<path opacity="0.3" d="M27.8774 53.0149C31.1647 53.0149 33.8295 51.009 33.8295 48.5346C33.8295 46.0602 31.1647 44.0543 27.8774 44.0543C24.5901 44.0543 21.9253 46.0602 21.9253 48.5346C21.9253 51.009 24.5901 53.0149 27.8774 53.0149Z" fill="#4D0D4F"/>
</g>
</g>
<path d="M27.8775 53.2963C24.0249 53.2963 20.8865 50.9024 20.8865 47.9632C20.8865 45.0239 24.0205 42.6301 27.8775 42.6301C31.7344 42.6301 34.8685 45.0239 34.8685 47.9632C34.8685 50.9024 31.7344 53.2963 27.8775 53.2963ZM27.8775 43.1842C24.3279 43.1842 21.4449 45.3269 21.4449 47.9632C21.4449 50.5994 24.3322 52.7422 27.8775 52.7422C31.4228 52.7422 34.3101 50.5994 34.3101 47.9632C34.3101 45.3269 31.4271 43.1842 27.8775 43.1842Z" fill="#4D0D4F"/>
<path d="M27.8775 51.8807C25.0595 51.8807 22.7695 50.1232 22.7695 47.9632C22.7695 45.8031 25.0595 44.0456 27.8775 44.0456C30.6956 44.0456 32.9855 45.8031 32.9855 47.9632C32.9855 50.1232 30.6956 51.8807 27.8775 51.8807ZM27.8775 44.5997C25.3668 44.5997 23.3236 46.1061 23.3236 47.9588C23.3236 49.8116 25.3668 51.318 27.8775 51.318C30.3882 51.318 32.4314 49.8116 32.4314 47.9588C32.4314 46.1104 30.3882 44.5997 27.8775 44.5997Z" fill="#4D0D4F"/>
<path d="M27.8774 50.5042C26.0593 50.5042 24.5789 49.3657 24.5789 47.9632C24.5789 46.5607 26.0593 45.4222 27.8774 45.4222C29.6955 45.4222 31.1759 46.5607 31.1759 47.9632C31.1759 49.3657 29.6955 50.5042 27.8774 50.5042ZM27.8774 45.8983C26.3234 45.8983 25.0594 46.8247 25.0594 47.9632C25.0594 49.1017 26.3234 50.028 27.8774 50.028C29.4314 50.028 30.6954 49.1017 30.6954 47.9632C30.6954 46.8247 29.4314 45.8983 27.8774 45.8983Z" fill="#4D0D4F"/>
<path d="M27.8776 49.4436C26.83 49.4436 25.9729 48.7813 25.9729 47.9632C25.9729 47.145 26.8257 46.4827 27.8776 46.4827C28.9295 46.4827 29.7823 47.145 29.7823 47.9632C29.7823 48.7813 28.9295 49.4436 27.8776 49.4436ZM27.8776 46.8637C27.0378 46.8637 26.3582 47.3571 26.3582 47.9632C26.3582 48.5692 27.0421 49.0627 27.8776 49.0627C28.713 49.0627 29.397 48.5692 29.397 47.9632C29.397 47.3571 28.7174 46.8637 27.8776 46.8637Z" fill="#4D0D4F"/>
<path d="M37.5135 52.6296C40.7003 52.6296 43.2837 50.5404 43.2837 47.9631C43.2837 45.3859 40.7003 43.2967 37.5135 43.2967C34.3266 43.2967 31.7432 45.3859 31.7432 47.9631C31.7432 50.5404 34.3266 52.6296 37.5135 52.6296Z" fill="#FFCE00"/>
<path d="M37.5134 52.9066C34.1759 52.9066 31.4661 50.6903 31.4661 47.9631C31.4661 45.236 34.1802 43.0197 37.5134 43.0197C40.8466 43.0197 43.5607 45.236 43.5607 47.9631C43.5651 50.6903 40.8509 52.9066 37.5134 52.9066ZM37.5134 43.5737C34.4832 43.5737 32.0201 45.5433 32.0201 47.9631C32.0201 50.3829 34.4832 52.3525 37.5134 52.3525C40.5436 52.3525 43.0067 50.3829 43.0067 47.9631C43.0067 45.5433 40.5436 43.5737 37.5134 43.5737Z" fill="#4D0D4F"/>
<path d="M37.5133 51.3223C39.8084 51.3223 41.669 49.8184 41.669 47.9632C41.669 46.1079 39.8084 44.604 37.5133 44.604C35.2182 44.604 33.3577 46.1079 33.3577 47.9632C33.3577 49.8184 35.2182 51.3223 37.5133 51.3223Z" fill="#FFCE00"/>
<path d="M37.5133 51.5993C35.0675 51.5993 33.0806 49.9674 33.0806 47.9632C33.0806 45.9589 35.0675 44.327 37.5133 44.327C39.959 44.327 41.946 45.9589 41.946 47.9632C41.946 49.9674 39.959 51.5993 37.5133 51.5993ZM37.5133 44.8811C35.3748 44.8811 33.6347 46.2619 33.6347 47.9632C33.6347 49.6644 35.3748 51.0453 37.5133 51.0453C39.6517 51.0453 41.3919 49.6644 41.3919 47.9632C41.3919 46.2619 39.6517 44.8811 37.5133 44.8811Z" fill="#4D0D4F"/>
<path d="M37.5133 50.0886C38.9645 50.0886 40.1409 49.137 40.1409 47.9631C40.1409 46.7893 38.9645 45.8377 37.5133 45.8377C36.0621 45.8377 34.8857 46.7893 34.8857 47.9631C34.8857 49.137 36.0621 50.0886 37.5133 50.0886Z" fill="#FFCE00"/>
<path d="M37.5133 50.3267C35.9333 50.3267 34.6433 49.2661 34.6433 47.9631C34.6433 46.6602 35.929 45.5996 37.5133 45.5996C39.0976 45.5996 40.3833 46.6602 40.3833 47.9631C40.3833 49.2661 39.0976 50.3267 37.5133 50.3267ZM37.5133 46.0758C36.1973 46.0758 35.1238 46.9242 35.1238 47.9631C35.1238 49.002 36.1973 49.8505 37.5133 49.8505C38.8293 49.8505 39.9028 49.002 39.9028 47.9631C39.9028 46.9242 38.8336 46.0758 37.5133 46.0758Z" fill="#4D0D4F"/>
<path d="M37.5133 49.1535C38.3261 49.1535 38.9851 48.6206 38.9851 47.9631C38.9851 47.3057 38.3261 46.7727 37.5133 46.7727C36.7004 46.7727 36.0415 47.3057 36.0415 47.9631C36.0415 48.6206 36.7004 49.1535 37.5133 49.1535Z" fill="#FFCE00"/>
<g opacity="0.3">
<g opacity="0.3">
<path opacity="0.3" d="M42.9202 46.3269C42.9202 46.3269 41.8986 46.8896 40.9593 46.0845C40.2147 45.1884 38.9464 44.604 37.5135 44.604C36.1456 44.604 34.9336 45.1364 34.176 45.9632C34.176 45.9632 33.3406 46.8723 32.0246 46.513C32.0246 46.513 31.3623 47.6645 31.964 49.2575C32.5657 50.8505 35.2019 53.0322 39.2754 51.7898C43.3531 50.5431 43.5739 47.3355 42.9202 46.3269Z" fill="#4D0D4F"/>
</g>
</g>
<path d="M37.5133 49.344C36.5956 49.344 35.8511 48.725 35.8511 47.9631C35.8511 47.2012 36.5956 46.5822 37.5133 46.5822C38.431 46.5822 39.1756 47.2012 39.1756 47.9631C39.1756 48.725 38.431 49.344 37.5133 49.344ZM37.5133 46.9632C36.8077 46.9632 36.232 47.4133 36.232 47.9631C36.232 48.5129 36.8077 48.9631 37.5133 48.9631C38.2189 48.9631 38.7947 48.5129 38.7947 47.9631C38.7947 47.4133 38.2233 46.9632 37.5133 46.9632Z" fill="#4D0D4F"/>
<path d="M28.4186 29.7302C28.4186 29.7302 26.9078 31.9812 23.6353 29.886V27.5701H33.2019V29.886C33.2019 29.886 30.8384 31.8124 28.4186 29.7302Z" fill="#FFD2B3"/>
<path d="M26.2195 31.1457C25.4663 31.1457 24.54 30.9033 23.4361 30.1977C23.263 30.0852 23.2154 29.8601 23.3236 29.6869C23.4318 29.5138 23.6612 29.4662 23.8344 29.5744C26.7433 31.4401 28.055 29.6047 28.1112 29.5224C28.2281 29.3536 28.4575 29.3103 28.6264 29.4272C28.7952 29.5398 28.8385 29.7692 28.7259 29.938C28.7129 29.9553 27.8861 31.1457 26.2195 31.1457Z" fill="#4D0D4F"/>
<path d="M21.9686 33.2626C21.7565 33.2626 21.5876 33.0894 21.5876 32.8816C21.5876 32.6695 21.7608 32.5007 21.9686 32.5007C22.5746 32.5007 23.2542 31.4834 23.2542 30.0203C23.2542 28.5572 22.5789 27.5399 21.9686 27.5399C21.7565 27.5399 21.5876 27.3667 21.5876 27.159C21.5876 26.9468 21.7608 26.778 21.9686 26.778C23.1157 26.778 24.0161 28.2022 24.0161 30.0246C24.0204 31.8341 23.12 33.2626 21.9686 33.2626Z" fill="#4D0D4F"/>
<path d="M30.6174 31.1458C28.9508 31.1458 28.1197 29.9553 28.1111 29.938C27.9985 29.7692 28.0418 29.5398 28.2106 29.4229C28.3794 29.3103 28.6089 29.3536 28.7257 29.5224C28.7777 29.6004 30.0937 31.4358 33.0026 29.5701C33.1758 29.4575 33.4052 29.5095 33.5134 29.6826C33.6216 29.8558 33.574 30.0852 33.4009 30.1934C32.3014 30.9033 31.375 31.1458 30.6174 31.1458Z" fill="#4D0D4F"/>
<path d="M34.8686 33.2626C33.7214 33.2626 32.821 31.8384 32.821 30.016C32.821 28.1979 33.7214 26.7693 34.8686 26.7693C35.0807 26.7693 35.2495 26.9425 35.2495 27.1503C35.2495 27.3624 35.0764 27.5312 34.8686 27.5312C34.2625 27.5312 33.5829 28.5485 33.5829 30.0116C33.5829 31.4748 34.2582 32.492 34.8686 32.492C35.0807 32.492 35.2495 32.6652 35.2495 32.873C35.2495 33.0894 35.0764 33.2626 34.8686 33.2626Z" fill="#4D0D4F"/>
<path d="M9.532 30.3882L30.189 42.0024L30.557 41.4094L10.8436 28.8429C10.8436 28.8429 9.38049 28.8039 9.532 30.3882Z" fill="white"/>
<g opacity="0.3">
<g opacity="0.3">
<path opacity="0.3" d="M15.3196 31.6609C14.7352 31.9249 14.1465 32.1717 13.5491 32.3968C13.4755 32.4228 13.402 32.4531 13.3284 32.479L30.0939 41.9071L30.4618 41.3141L15.3196 31.6609Z" fill="#4D0D4F"/>
</g>
</g>
<path d="M30.1889 42.34C30.1326 42.34 30.0764 42.3271 30.0244 42.2968L9.36736 30.6826C9.27212 30.6306 9.20719 30.5311 9.19853 30.4228C9.14226 29.8341 9.27645 29.358 9.59245 29.0203C10.0816 28.4965 10.8218 28.5095 10.8521 28.5138C10.9127 28.5138 10.9733 28.5355 11.021 28.5658L30.7343 41.128C30.8902 41.2275 30.9335 41.431 30.8382 41.5868L30.4703 42.1799C30.4097 42.2794 30.3015 42.34 30.1889 42.34ZM9.85651 30.1891L30.072 41.5565L30.098 41.5176L10.7526 29.1848C10.6054 29.1978 10.2894 29.2541 10.0816 29.4792C9.92577 29.6437 9.85218 29.8817 9.85651 30.1891Z" fill="#4D0D4F"/>
<path d="M17.9905 32.6782C13.4669 32.1197 12.3198 34.7127 12.3198 34.7127C11.3848 36.3014 11.4194 40.3141 14.1032 40.4527C15.0253 40.5003 15.6659 40.3877 16.1075 40.2232C15.7439 41.3011 18.7957 40.9505 18.5619 39.5523C18.5619 39.5523 19.458 39.3618 19.2632 38.2277L19.419 37.4874C19.5835 37.5827 20.4926 37.9723 20.6657 38.1368C21.2891 38.7298 23.2976 38.5826 22.2371 36.9247C22.5228 37.0849 23.0249 37.2364 23.4232 36.6563C23.7392 36.1975 22.2933 33.2106 17.9905 32.6782Z" fill="#FFD2B3"/>
<g opacity="0.6">
<g opacity="0.6">
<path opacity="0.6" d="M12.5014 35.8772C12.5014 35.8772 13.813 32.9076 18.9859 33.5483C20.4318 33.7257 21.5962 34.15 22.5096 34.6694C21.6482 33.808 20.2153 32.9422 18.0899 32.6825C13.5663 32.1241 12.4191 34.717 12.4191 34.717C11.9863 35.4529 11.7222 35.7862 11.8694 36.9334C11.9603 36.1629 12.2114 36.375 12.5014 35.8772Z" fill="white"/>
</g>
</g>
<g opacity="0.35">
<g opacity="0.35">
<path opacity="0.35" d="M22.6526 34.7386C22.869 35.4702 22.8604 36.3749 21.8301 36.929C20.6354 37.5697 18.8822 36.929 18.8822 36.929C18.8822 36.929 19.7133 38.4008 18.0164 39.0198C16.3196 39.6388 14.9084 38.5134 13.3327 39.5523C12.3284 40.2189 10.8176 39.773 10.2073 38.561C10.4454 40.6951 12.3587 41.682 13.7396 40.3704C13.9041 40.418 14.0772 40.444 14.2634 40.457C15.1854 40.5046 15.8261 40.392 16.2676 40.2276C15.904 41.3054 18.9558 40.9548 18.722 39.5566C18.722 39.5566 19.6181 39.3661 19.4233 38.232L19.5791 37.4918C19.7436 37.587 20.6527 37.9766 20.8258 38.1411C21.4492 38.7341 23.4578 38.5869 22.3972 36.929C22.6829 37.0892 23.185 37.2407 23.5833 36.6606C23.7478 36.4312 23.4794 35.5957 22.6526 34.7386Z" fill="#4D0D4F"/>
</g>
</g>
<path d="M17.4233 34.9161C17.8648 34.8858 18.3021 34.9161 18.7349 34.9724C19.1678 35.033 19.6007 35.1196 20.0249 35.2495C20.237 35.3144 20.4491 35.3837 20.6569 35.4659C20.8647 35.5482 21.0725 35.6391 21.2759 35.7429C21.6785 35.9507 22.0681 36.2278 22.3798 36.613L22.488 36.7645L22.5832 36.9161C22.6135 36.968 22.6438 37.0243 22.6698 37.0762C22.6958 37.1325 22.7218 37.1888 22.7477 37.2494C22.791 37.3706 22.8343 37.4961 22.8473 37.6433C22.8603 37.7861 22.8559 37.9463 22.7997 38.1021C22.7434 38.258 22.6395 38.4008 22.5183 38.5004C22.3971 38.6 22.2586 38.6649 22.1287 38.7125C21.8603 38.7991 21.6006 38.8077 21.3452 38.7774C21.0898 38.7428 20.8344 38.6735 20.592 38.5134C20.5617 38.4917 20.5314 38.4744 20.5011 38.4485L20.4232 38.3792L20.3149 38.284L20.2024 38.1931L20.0855 38.1108C19.9297 38.0069 19.7609 37.929 19.592 37.877C19.4232 37.8294 19.2414 37.8035 19.0856 37.8164H19.0812C18.8994 37.8338 18.7349 37.6996 18.7133 37.5178C18.696 37.3359 18.8258 37.1715 19.012 37.1498C19.5531 37.0892 20.0509 37.2753 20.4621 37.5394L20.6136 37.6433L20.7565 37.7558L20.8907 37.877L20.908 37.89L20.9166 37.8987L20.934 37.916C20.9426 37.929 20.9599 37.9377 20.9729 37.9463C21.0898 38.0242 21.2629 38.0892 21.4318 38.1108C21.6049 38.1368 21.7824 38.1281 21.9296 38.0848C22.0032 38.0632 22.0638 38.0329 22.1114 37.9983C22.159 37.9636 22.185 37.9247 22.2066 37.877C22.2456 37.7861 22.2326 37.626 22.1763 37.4615C22.159 37.4182 22.146 37.3792 22.1244 37.3359C22.1027 37.2927 22.0854 37.2494 22.0638 37.2104L21.9902 37.0849L21.9123 36.968C21.6915 36.665 21.3712 36.4139 21.0205 36.2061C20.6699 35.9983 20.2846 35.8295 19.8864 35.6867C19.0899 35.4053 18.2588 35.1975 17.419 34.9681C17.406 34.9638 17.393 34.9464 17.3973 34.9335C17.3973 34.9248 17.4103 34.9205 17.4233 34.9161Z" fill="#4D0D4F"/>
<path d="M17.1852 36.916C17.3584 36.8165 17.5489 36.7689 17.7437 36.7472C17.9384 36.7299 18.1376 36.7429 18.3367 36.7948C18.5358 36.8468 18.7306 36.9247 18.9168 37.0502C19.0986 37.1714 19.2544 37.3446 19.3713 37.5351C19.4276 37.6303 19.4795 37.7342 19.5141 37.8337C19.5531 37.9376 19.5747 38.0372 19.6007 38.1368C19.644 38.3402 19.67 38.561 19.6353 38.7947C19.6094 39.0285 19.5098 39.2709 19.3496 39.47C19.1895 39.6691 18.9774 39.8077 18.7393 39.8856C18.5445 39.9505 18.3367 39.8423 18.2718 39.6518C18.2112 39.4657 18.3021 39.2666 18.4795 39.193L18.4969 39.1843C18.6008 39.141 18.7003 39.0718 18.7653 38.9939C18.8302 38.9116 18.8778 38.8121 18.9038 38.6865C18.9254 38.561 18.9211 38.4181 18.9038 38.2666C18.8778 38.1108 18.8475 37.9766 18.7956 37.8511C18.683 37.6086 18.4709 37.4052 18.1765 37.2883C17.8865 37.1714 17.5575 37.0935 17.1939 36.981C17.1766 36.9766 17.1679 36.955 17.1722 36.9377C17.1766 36.929 17.1809 36.9204 17.1852 36.916Z" fill="#4D0D4F"/>
<path d="M16.722 38.4268C16.9644 38.3056 17.2328 38.2623 17.5099 38.2753C17.7869 38.2926 18.0813 38.3835 18.3194 38.5783C18.5618 38.7731 18.7263 39.0545 18.8128 39.3358C18.8258 39.3705 18.8302 39.4051 18.8431 39.4441C18.8518 39.4787 18.8605 39.5133 18.8648 39.5566C18.8691 39.5999 18.8778 39.6389 18.8778 39.6821V39.812C18.8648 39.9852 18.8128 40.1583 18.7306 40.3055C18.644 40.4527 18.5358 40.5739 18.4189 40.6821C18.302 40.786 18.1722 40.8639 18.0423 40.9375C17.9125 41.0067 17.7783 41.0587 17.6397 41.1063C17.5012 41.1496 17.3627 41.1842 17.2198 41.2059C16.9341 41.2448 16.6398 41.2578 16.3065 41.1539C16.2242 41.128 16.1376 41.089 16.0467 41.0284C16.0035 40.9981 15.9602 40.9678 15.9169 40.9202C15.8952 40.8985 15.8736 40.8769 15.8563 40.8552C15.839 40.8293 15.8216 40.8033 15.8043 40.7773C15.7697 40.7254 15.7481 40.6604 15.7264 40.5998C15.7091 40.5392 15.7048 40.4743 15.7004 40.4137C15.7048 40.3574 15.7091 40.2968 15.7178 40.2449C15.7307 40.1973 15.7437 40.1453 15.7567 40.0977C15.8173 39.9072 16.0208 39.799 16.2112 39.8596C16.3801 39.9116 16.4796 40.0761 16.4666 40.2449L16.458 40.3488C16.458 40.3618 16.4537 40.3747 16.4493 40.3834C16.4493 40.3921 16.4537 40.3964 16.4493 40.4007C16.4537 40.4007 16.4493 40.4007 16.4493 40.4007C16.4537 40.3964 16.445 40.3964 16.4493 40.3921H16.4536C16.4536 40.3964 16.4623 40.4007 16.471 40.405C16.4883 40.418 16.5143 40.431 16.5489 40.4397C16.6961 40.4916 16.9168 40.5003 17.1203 40.4743C17.3324 40.4483 17.5402 40.3921 17.7306 40.3098C17.9168 40.2232 18.0769 40.1064 18.1722 39.9722C18.2155 39.9029 18.2458 39.8336 18.2588 39.7601C18.2588 39.7384 18.2631 39.7211 18.2674 39.6995C18.2674 39.6778 18.2631 39.6562 18.2631 39.6389C18.2631 39.6215 18.2631 39.5956 18.2588 39.5696C18.2544 39.5436 18.2544 39.5176 18.2458 39.4917C18.2068 39.2882 18.1246 39.1107 17.986 38.9766C17.8475 38.838 17.6614 38.7385 17.4449 38.6649C17.2285 38.5913 16.9904 38.5393 16.735 38.5004H16.7307C16.7134 38.4961 16.7004 38.4831 16.7047 38.4658C16.7091 38.4398 16.7134 38.4311 16.722 38.4268Z" fill="#4D0D4F"/>
<path d="M11.6443 36.9247C11.601 36.5308 11.6097 36.1282 11.666 35.73C11.7266 35.3317 11.8305 34.9291 12.0296 34.5439L12.0123 34.5785C12.0556 34.4703 12.0945 34.4053 12.1421 34.3231C12.1854 34.2452 12.2374 34.1759 12.285 34.1023L12.4408 33.8945C12.4971 33.8296 12.5534 33.7647 12.614 33.6997C12.8564 33.453 13.1204 33.2279 13.4105 33.0504C13.9905 32.6868 14.6442 32.4704 15.2978 32.3535C15.9515 32.2236 16.6138 32.2236 17.2631 32.2409L17.7479 32.2842L17.9903 32.3059C18.0726 32.3145 18.1505 32.3275 18.2328 32.3405C18.5574 32.3838 18.8734 32.453 19.1938 32.5266C19.8258 32.6868 20.4491 32.9119 21.0335 33.2192C21.6179 33.5266 22.1676 33.9119 22.6438 34.3794C22.8819 34.6131 23.1027 34.8685 23.2975 35.1499C23.4879 35.4313 23.6611 35.73 23.7693 36.0936C23.7823 36.1412 23.7953 36.1845 23.8039 36.2364L23.8169 36.3144C23.8213 36.3403 23.8213 36.3706 23.8256 36.4009C23.8342 36.4529 23.8299 36.5265 23.8213 36.5914C23.8126 36.6304 23.8039 36.6736 23.7953 36.7126C23.7823 36.7559 23.752 36.8122 23.726 36.8598C23.6957 36.9074 23.6654 36.9377 23.6394 36.9767C23.6091 37.0156 23.5832 37.0546 23.5442 37.0892C23.5096 37.1238 23.4749 37.1628 23.436 37.1974C23.3927 37.2321 23.3494 37.2667 23.3061 37.297C23.2585 37.3273 23.2066 37.3576 23.1589 37.3836C23.107 37.4095 23.0464 37.4312 22.9901 37.4485C22.9295 37.4615 22.8689 37.4788 22.804 37.4831C22.7391 37.4875 22.6784 37.4918 22.6178 37.4831C22.4923 37.4745 22.3754 37.4355 22.2715 37.3879C22.2196 37.3619 22.172 37.3359 22.1244 37.3056C22.1027 37.2883 22.0767 37.2753 22.0551 37.2537C22.0421 37.245 22.0335 37.2364 22.0205 37.2277C22.0075 37.2147 21.9988 37.2104 21.9772 37.1888C21.83 37.0459 21.83 36.8122 21.9729 36.665C22.1157 36.5178 22.3495 36.5178 22.4966 36.6607C22.488 36.652 22.4966 36.6607 22.4966 36.6607C22.4966 36.6607 22.5053 36.665 22.5096 36.6693C22.5183 36.6736 22.5269 36.6823 22.5356 36.6866C22.5529 36.6996 22.5746 36.7083 22.5919 36.7169C22.6308 36.7342 22.6655 36.7472 22.6958 36.7472C22.7607 36.7559 22.817 36.7386 22.8906 36.6866C22.9641 36.639 23.0464 36.5394 23.1157 36.4442C23.1027 36.4529 23.0983 36.4745 23.094 36.4832C23.0897 36.4832 23.0897 36.4875 23.094 36.4918C23.0897 36.4788 23.0983 36.4745 23.094 36.4485C23.094 36.4356 23.094 36.4269 23.0897 36.4139L23.081 36.375C23.0767 36.349 23.068 36.3187 23.0594 36.2927C22.9901 36.0546 22.8473 35.7992 22.6871 35.5655C22.5226 35.3274 22.3321 35.1066 22.1244 34.9032C21.7088 34.4919 21.2196 34.1456 20.6915 33.8686C20.1677 33.5915 19.5963 33.3881 19.0163 33.2366C18.7219 33.1673 18.4276 33.1067 18.1289 33.0634C18.0553 33.0548 17.9817 33.0418 17.9038 33.0331L17.6787 33.0158L17.2285 32.9855C16.6268 32.9682 16.0207 32.9768 15.445 33.1024C14.8693 33.2236 14.3152 33.427 13.826 33.7214C13.7654 33.7603 13.7005 33.7906 13.6442 33.8339L13.4711 33.9595C13.4105 33.9984 13.3585 34.0461 13.3023 34.0893C13.2503 34.137 13.1897 34.1759 13.1421 34.2279L12.9906 34.375L12.8521 34.5309C12.8088 34.5872 12.7655 34.6391 12.7265 34.6954L12.6702 34.7776L12.6443 34.8166L12.6226 34.8469L12.6053 34.8815C12.5101 35.02 12.4322 35.1759 12.3586 35.336C12.285 35.4962 12.2201 35.6694 12.1638 35.8425C12.0469 36.1931 11.9603 36.5568 11.8911 36.929C11.8781 36.9983 11.8131 37.0416 11.7439 37.0286C11.6919 37.0243 11.653 36.981 11.6443 36.9247Z" fill="#4D0D4F"/>
<path d="M17.0123 39.3012C17.0945 39.4354 17.0859 39.5696 17.0512 39.6821C17.0166 39.7947 16.9387 39.8812 16.8651 39.9635C16.7136 40.1237 16.5318 40.2492 16.3413 40.3314C15.956 40.5046 15.5578 40.5565 15.1725 40.6085C15.0773 40.6171 14.9777 40.6344 14.8825 40.6388L14.5925 40.6518C14.4972 40.6561 14.402 40.6561 14.3068 40.6518C14.2115 40.6518 14.1163 40.6518 14.0211 40.6561C13.9215 40.6604 13.8176 40.6561 13.7137 40.6388C13.6098 40.6215 13.5103 40.5825 13.4194 40.5392C13.2332 40.444 13.0601 40.3055 12.9605 40.102C12.9475 40.076 12.9605 40.0457 12.9821 40.0327C12.9865 40.0284 12.9951 40.0284 13.0038 40.0284C13.2202 40.0154 13.3934 40.0198 13.5622 40.0198C13.6445 40.0198 13.7267 40.0241 13.8046 40.0327C13.8869 40.0414 13.9605 40.0544 14.047 40.0674C14.1336 40.076 14.2245 40.0847 14.3111 40.0847C14.402 40.0847 14.4886 40.089 14.5751 40.0847L14.8392 40.076C14.9258 40.0717 15.0124 40.0587 15.0989 40.0501C15.4452 40.0111 15.7742 39.9072 16.0556 39.7644L16.1638 39.7124C16.1984 39.6908 16.2288 39.6735 16.2634 39.6518C16.298 39.6345 16.3283 39.6129 16.3586 39.5912C16.3889 39.5696 16.4235 39.5523 16.4495 39.5263C16.5101 39.483 16.5577 39.431 16.6313 39.3964C16.7049 39.3575 16.7872 39.3272 16.9214 39.2882L16.943 39.2839C16.9733 39.2709 16.9993 39.2795 17.0123 39.3012Z" fill="#4D0D4F"/>
<path d="M20.9902 19.7004C20.9685 19.7004 20.9469 19.7004 20.9253 19.6961C19.5574 19.432 18.6137 18.8779 18.1202 18.0555C17.5271 17.0685 17.8258 16.0642 17.8388 16.0209C17.8951 15.8434 18.0812 15.7439 18.2587 15.8002C18.4362 15.8564 18.5358 16.0426 18.4795 16.2157C18.4752 16.233 18.2587 16.9906 18.7003 17.7178C19.0942 18.3671 19.8863 18.8087 21.0551 19.0381C21.2369 19.0727 21.3538 19.2502 21.3192 19.432C21.2889 19.5922 21.146 19.7004 20.9902 19.7004Z" fill="#4D0D4F"/>
<path d="M28.0333 18.4796C27.9857 18.4796 27.9424 18.471 27.8948 18.4493C23.9382 16.6659 24.5356 14.021 24.5659 13.9084C24.6092 13.7309 24.791 13.6184 24.9728 13.6617C25.1503 13.705 25.2629 13.8868 25.2196 14.0643C25.1979 14.1595 24.7521 16.2979 28.1761 17.839C28.345 17.9169 28.4186 18.1117 28.345 18.2805C28.28 18.4061 28.1588 18.4796 28.0333 18.4796Z" fill="#4D0D4F"/>
<path d="M36.0155 19.9298C35.9376 19.9298 35.8597 19.9039 35.7947 19.8476C32.1196 16.627 32.9593 14.2764 32.994 14.1769C33.0589 14.0037 33.2537 13.9171 33.4269 13.9821C33.6 14.047 33.6866 14.2375 33.6217 14.4106C33.6087 14.4452 32.9593 16.4711 36.2363 19.3411C36.3748 19.4623 36.3878 19.6744 36.2666 19.813C36.2017 19.8909 36.1064 19.9298 36.0155 19.9298Z" fill="#4D0D4F"/>
<path d="M40.1884 23.1028C40.1191 23.1028 40.0499 23.0812 39.9893 23.0379C39.8421 22.9253 39.8118 22.7176 39.9243 22.5704C41.6212 20.3064 39.8507 17.6918 39.7772 17.5793C39.6733 17.4278 39.7079 17.22 39.8637 17.1118C40.0152 17.0079 40.223 17.0425 40.3269 17.194C40.3486 17.2243 42.4523 20.3151 40.4611 22.9686C40.3918 23.0552 40.2923 23.1028 40.1884 23.1028Z" fill="#4D0D4F"/>
<path d="M49.6859 43.2404C49.6772 43.2404 49.6686 43.2404 49.6643 43.2404C46.5345 43.024 45.0281 41.05 44.6212 40.418C43.9805 40.431 42.1927 40.2665 41.5737 38.0978C41.5218 37.9203 41.6256 37.7342 41.8031 37.6866C41.9806 37.6346 42.1667 37.7385 42.2144 37.916C42.8074 40.0025 44.6731 39.7557 44.7511 39.7427C44.8896 39.7211 45.0281 39.7903 45.0974 39.9159C45.1493 40.0154 46.4393 42.3487 49.7075 42.5738C49.8937 42.5868 50.0322 42.7469 50.0192 42.9287C50.0062 43.1062 49.8591 43.2404 49.6859 43.2404Z" fill="#4D0D4F"/>
<path d="M42.5953 38.3705C42.4438 38.4181 42.2923 38.4224 42.1451 38.4008C41.9979 38.3792 41.8464 38.3315 41.7079 38.2579C41.5694 38.18 41.4395 38.0761 41.3313 37.9463C41.2231 37.8164 41.1365 37.6649 41.0759 37.5004C40.959 37.1757 40.959 36.8294 41.0196 36.5264C41.0326 36.4485 41.0542 36.3792 41.0716 36.3013C41.0932 36.2277 41.1235 36.1585 41.1451 36.0892L41.1841 35.981C41.1971 35.9464 41.2187 35.9117 41.2317 35.8771C41.2664 35.8078 41.301 35.7386 41.3356 35.6736C41.5001 35.4096 41.7122 35.1758 41.9503 34.9897C42.1884 34.8036 42.4395 34.6694 42.6819 34.5482C42.9243 34.4269 43.1537 34.3231 43.3572 34.2062C43.5606 34.0893 43.7294 33.9594 43.855 33.8079L43.8809 33.782L43.9242 33.73C43.9545 33.6954 43.9805 33.6608 44.0151 33.6305C44.0498 33.6001 44.0801 33.5655 44.119 33.5395C44.158 33.5092 44.1926 33.4833 44.2359 33.4573C44.4004 33.3577 44.5995 33.3058 44.79 33.3015C44.9805 33.2971 45.1623 33.3491 45.3224 33.4227C45.4826 33.4963 45.6211 33.5958 45.7423 33.7127C45.9847 33.9465 46.1449 34.2451 46.2185 34.5611C46.2964 34.8771 46.2878 35.2018 46.2228 35.5092C46.1925 35.6607 46.1406 35.8122 46.08 35.9464C46.0151 36.0762 45.9588 36.2104 45.8722 36.336C45.7164 36.587 45.5043 36.8078 45.2618 36.9809C45.0238 37.1541 44.751 37.2796 44.4697 37.3489C44.1883 37.4138 43.9026 37.4311 43.6256 37.3662C43.5953 37.3576 43.5736 37.3273 43.5823 37.2969C43.5866 37.2796 43.5996 37.2623 43.6169 37.258L43.6256 37.2537C44.1061 37.0589 44.5086 36.7862 44.8073 36.4572C44.9588 36.2927 45.0887 36.1152 45.1969 35.9204C45.2618 35.8295 45.3008 35.7213 45.3571 35.626C45.383 35.5741 45.4004 35.5265 45.422 35.4789C45.4393 35.4312 45.461 35.3793 45.474 35.3317C45.5346 35.1325 45.5432 34.9291 45.4956 34.7386C45.4523 34.5482 45.3571 34.375 45.2229 34.2495C45.093 34.1196 44.9242 34.046 44.79 34.0503C44.7207 34.0503 44.6645 34.0677 44.6082 34.1023C44.5952 34.1109 44.5822 34.1196 44.5649 34.1326C44.5519 34.1412 44.5389 34.1542 44.5259 34.1672C44.513 34.1802 44.5 34.1932 44.487 34.2105L44.4264 34.2798C44.2273 34.5352 43.9719 34.7213 43.7294 34.8642C43.487 35.0113 43.2489 35.1239 43.0325 35.2451C42.8161 35.3663 42.6126 35.4832 42.4481 35.626C42.2836 35.7689 42.1494 35.9247 42.0412 36.1022L41.9719 36.245C41.959 36.271 41.946 36.2927 41.9373 36.3143L41.9113 36.3922L41.8551 36.5437C41.8421 36.5957 41.8248 36.6476 41.8161 36.6952C41.7685 36.8987 41.7598 37.0892 41.8075 37.258C41.8507 37.4268 41.9546 37.5697 42.0932 37.7298C42.2273 37.89 42.4092 38.0545 42.6083 38.2536L42.6126 38.2579C42.6386 38.2839 42.6386 38.3229 42.6126 38.3489C42.6126 38.3618 42.604 38.3662 42.5953 38.3705Z" fill="#4D0D4F"/>
<path d="M43.5304 34.9248C43.3313 34.9248 43.1668 34.7646 43.1625 34.5655C43.1495 34.0547 43.0673 29.5527 44.4741 28.345C45.6559 27.3321 46.7294 27.6048 47.2879 28.1459C47.9112 28.7519 48.145 29.9207 47.3571 30.8947C47.2879 30.9812 47.2186 31.0765 47.158 31.1717C47.7034 30.544 48.3874 30.0376 49.2099 29.9077C50.7163 29.6653 51.1535 30.4142 51.2704 30.7475C51.5431 31.5353 51.0669 32.5699 50.2011 33.0547C49.7336 33.3188 49.3051 33.6694 48.9198 34.098C48.7813 34.2495 48.5475 34.2625 48.396 34.1283C48.2445 33.9898 48.2315 33.756 48.3657 33.6045C48.8029 33.1153 49.2964 32.7128 49.8332 32.4141C50.4219 32.0808 50.7033 31.3925 50.5648 30.9942C50.4046 30.5397 49.7163 30.5787 49.3224 30.6393C47.2792 30.9639 46.1667 34.5135 46.158 34.5482C46.1018 34.73 45.92 34.8382 45.7338 34.8036C45.5477 34.7689 45.4178 34.6001 45.4351 34.414C45.4438 34.3101 45.6429 31.834 46.7771 30.4315C47.2922 29.7995 47.1537 29.0549 46.7684 28.6783C46.3139 28.2368 45.6342 28.3234 44.9546 28.9077C43.9893 29.7345 43.8681 33.2582 43.9027 34.5438C43.907 34.7473 43.7469 34.9205 43.5434 34.9248C43.5348 34.9248 43.5348 34.9248 43.5304 34.9248Z" fill="#4D0D4F"/>
<path d="M48.7942 39.6302C49.292 39.3142 49.7682 38.9852 50.1491 38.6043C50.3396 38.4138 50.4997 38.2104 50.6123 38.0026C50.6686 37.8987 50.7075 37.7905 50.7335 37.6823C50.7465 37.626 50.7551 37.5784 50.7638 37.5178L50.7725 37.4269L50.7768 37.336C50.7811 37.0979 50.7422 36.8771 50.6469 36.7083C50.5517 36.5438 50.4002 36.4226 50.1924 36.349C49.9846 36.2797 49.7335 36.2624 49.4738 36.2884C49.2184 36.3144 48.9543 36.3836 48.6946 36.4702C48.4349 36.5611 48.1925 36.6693 47.9717 36.8078C47.7509 36.9464 47.5561 37.1109 47.4003 37.3013C47.2488 37.4875 47.1362 37.6996 47.0929 37.903C47.0713 38.0069 47.067 38.1022 47.08 38.1931C47.0929 38.2796 47.1233 38.3532 47.1622 38.4182C47.2445 38.535 47.3916 38.613 47.6167 38.6216C47.8765 38.6346 48.1319 38.6086 48.3916 38.561C48.6513 38.5134 48.9067 38.4355 49.1578 38.3273C49.2833 38.2753 49.4089 38.2147 49.5301 38.1455C49.647 38.0762 49.7725 37.9983 49.8547 37.9074L49.8677 37.8944C49.8894 37.8684 49.9283 37.8684 49.9543 37.8901C49.9716 37.903 49.976 37.9247 49.9716 37.9463C49.9673 37.968 49.963 37.9896 49.9586 38.0156C49.9543 38.0372 49.9456 38.0545 49.937 38.0762C49.924 38.1195 49.9024 38.1541 49.885 38.1887C49.8461 38.2623 49.8028 38.3273 49.7509 38.3922C49.6513 38.5221 49.5387 38.6346 49.4175 38.7385C49.1708 38.9463 48.8851 39.1065 48.5777 39.2147C48.2704 39.3229 47.9414 39.3792 47.6124 39.3835C47.4349 39.3878 47.2271 39.3662 47.0323 39.2839C46.8375 39.206 46.6514 39.0718 46.5172 38.8943C46.383 38.7212 46.3051 38.5134 46.2748 38.3099C46.2445 38.1065 46.2575 37.9074 46.2964 37.7256C46.383 37.3576 46.5692 37.0416 46.7943 36.7819C47.0194 36.5221 47.2877 36.3144 47.5734 36.1499C47.8548 35.981 48.1578 35.8598 48.4522 35.7603C48.6037 35.7127 48.7509 35.665 48.9111 35.6304C49.0669 35.5914 49.2271 35.5611 49.3872 35.5438C49.7119 35.5049 50.0625 35.5092 50.4132 35.6088C50.5906 35.6607 50.7638 35.743 50.924 35.8555C51.0841 35.9724 51.2227 36.1196 51.3265 36.2884C51.5343 36.6304 51.5863 37.0156 51.569 37.3576L51.5603 37.4875L51.543 37.613C51.5257 37.6996 51.5127 37.7948 51.4824 37.8814C51.4261 38.0545 51.3482 38.219 51.253 38.3662C51.0582 38.6606 50.8157 38.8943 50.5517 39.0762C50.2876 39.258 50.0063 39.4008 49.7206 39.509C49.4305 39.6173 49.1362 39.6952 48.8331 39.7298C48.7985 39.7341 48.7682 39.7082 48.7639 39.6735C48.7595 39.6649 48.7725 39.6432 48.7942 39.6302Z" fill="#4D0D4F"/>
<path d="M46.4134 38.1368C45.9329 38.1368 45.6169 37.9723 45.4307 37.8164C45.197 37.626 44.9113 37.2493 44.881 36.5481C44.8723 36.3446 45.0281 36.1715 45.2359 36.1628C45.4437 36.1542 45.6125 36.31 45.6212 36.5178C45.6342 36.8598 45.7294 37.1065 45.8982 37.245C46.1103 37.4182 46.4307 37.4138 46.6601 37.3792C46.8635 37.3489 47.0497 37.4874 47.08 37.6909C47.1103 37.8943 46.9718 38.0805 46.7683 38.1108C46.6428 38.1281 46.5259 38.1368 46.4134 38.1368Z" fill="#4D0D4F"/>
<path d="M50.4997 36.4355C50.4434 36.4355 50.3915 36.4225 50.3352 36.3966C50.1534 36.3057 50.0755 36.0849 50.1664 35.9031C50.2183 35.7992 50.6209 34.8772 49.6426 34.3577C48.885 33.9551 47.1275 34.4399 46.1579 35.3187C46.0064 35.4572 45.7726 35.4442 45.6341 35.2927C45.4956 35.1412 45.5086 34.9075 45.6601 34.7689C46.7639 33.769 48.8504 33.098 49.9889 33.7041C51.2918 34.3967 51.11 35.6563 50.8287 36.2277C50.7681 36.3576 50.6382 36.4355 50.4997 36.4355Z" fill="#4D0D4F"/>
<path d="M44.1062 36.3013C43.998 36.3013 43.8897 36.2754 43.7902 36.2278C43.4222 36.046 43.2231 35.5828 43.288 35.0763C43.2967 35.0244 43.3183 34.9767 43.3573 34.9378C43.7469 34.5525 44.275 34.1413 44.604 34.362C44.8031 34.4962 45.0326 34.8079 45.0715 35.1672C45.0932 35.3836 45.0499 35.704 44.7382 36.0156C44.5477 36.2018 44.327 36.3013 44.1062 36.3013ZM43.7556 35.2148C43.7382 35.5092 43.8638 35.7299 44.0023 35.7992C44.1538 35.8728 44.301 35.7732 44.4006 35.6737C44.5477 35.5265 44.6127 35.375 44.5953 35.2105C44.578 35.007 44.4482 34.8469 44.3659 34.7776C44.2534 34.8036 43.985 34.9984 43.7556 35.2148Z" fill="#4D0D4F"/>
<path d="M46.4091 44.8334C46.2057 44.8334 46.0369 44.6689 46.0369 44.4611C46.0369 44.2577 46.2014 44.0888 46.4091 44.0888C48.2013 44.0888 50.9457 41.9807 50.9457 39.3791C50.9457 38.851 50.8851 38.3359 50.7683 37.8424C50.7206 37.6433 50.8418 37.4441 51.041 37.3965C51.2401 37.3489 51.4392 37.4701 51.4868 37.6692C51.621 38.219 51.686 38.7947 51.686 39.3791C51.686 40.7643 51.041 42.1366 49.8722 43.2404C48.8333 44.223 47.5043 44.8334 46.4091 44.8334Z" fill="#4D0D4F"/>
<path d="M28.6869 48.4609C23.869 48.4609 19.3411 48.2402 15.93 47.8333C14.2591 47.6341 12.9431 47.4047 12.0211 47.145C10.8566 46.8203 10.3372 46.4524 10.3372 45.9589C10.3372 45.7554 10.5017 45.5866 10.7094 45.5866C10.9042 45.5866 11.0644 45.7381 11.0774 45.9286C11.1423 46.0152 11.7483 46.6212 16.4061 47.1407C19.7393 47.5129 24.1027 47.7164 28.6913 47.7164C33.2798 47.7164 37.6389 47.5129 40.9764 47.1407C45.6342 46.6212 46.2402 46.0152 46.3052 45.9286C46.3182 45.7381 46.4783 45.5866 46.6731 45.5866C46.8766 45.5866 47.0454 45.7511 47.0454 45.9589C47.0454 46.4524 46.5259 46.8203 45.3615 47.145C44.4395 47.4047 43.1235 47.6341 41.4526 47.8333C38.0328 48.2358 33.5049 48.4609 28.6869 48.4609Z" fill="#4D0D4F"/>
<path d="M46.669 45.9589C46.6603 46.0022 46.6473 46.0412 46.6387 46.0845C46.656 46.0455 46.669 46.0022 46.669 45.9589Z" fill="white"/>
<path d="M46.4827 46.5087L46.6039 46.0195C46.6082 45.9979 46.6169 45.9719 46.6212 45.9502L46.7164 45.552V45.9632C46.7164 46.0109 46.7034 46.0585 46.6818 46.1061L46.4827 46.5087Z" fill="#4D0D4F"/>
<path d="M10.713 46.0195C10.7087 45.9806 10.7043 45.9589 10.7043 45.9589C10.7087 45.9806 10.7087 46.0022 10.713 46.0195Z" fill="white"/>
<path d="M10.6705 46.0325C10.6662 46.0065 10.6619 45.9849 10.6619 45.9633L10.7571 45.9589C10.7571 45.9589 10.7614 45.9806 10.7657 46.0195L10.6705 46.0325Z" fill="#4D0D4F"/>
<path d="M28.6868 48.0887C18.9297 48.0887 10.9863 47.1667 10.7136 46.0195C10.8175 46.7944 12.1724 54.9109 22.7996 58.0233H34.0286C34.0286 58.0233 44.2229 55.9411 46.6297 46.0845C46.0929 47.2013 38.2665 48.0887 28.6868 48.0887Z" fill="#4089FF"/>
<g opacity="0.6">
<g opacity="0.6">
<path opacity="0.6" d="M46.2532 46.4178C46.2878 46.2966 46.3181 46.1711 46.3484 46.0455C45.8246 47.1277 38.4656 47.9935 29.3016 48.0498C29.6003 48.0498 29.8989 48.0541 30.1976 48.0541C31.2582 48.0541 32.2971 48.0411 33.31 48.0238C31.8339 48.0714 30.2842 48.0931 28.6869 48.0931C18.9297 48.0931 10.9864 47.171 10.7137 46.0239C10.7223 46.0845 10.7397 46.1927 10.7656 46.3399C10.5708 46.223 10.454 46.1061 10.428 45.9806C10.5319 46.7554 11.8868 54.872 22.514 57.9844H24.3105C16.5446 55.7117 13.7309 50.7683 12.7396 47.9675C12.6833 47.8073 12.8261 47.6472 12.9906 47.6861C15.9429 48.3831 22.0335 48.8592 29.0678 48.8592C37.1713 48.8592 44.0195 48.2229 46.2662 47.3528C46.4047 46.9459 46.5259 46.5217 46.6341 46.0802C46.5822 46.197 46.4523 46.3096 46.2532 46.4178Z" fill="white"/>
</g>
</g>
<g opacity="0.3">
<g opacity="0.3">
<path opacity="0.3" d="M21.4273 57.6121C21.5658 57.6554 21.7043 57.6987 21.8472 57.7376H33.0761C33.0761 57.7376 42.6384 55.7853 45.4262 46.7078C44.7076 46.9329 43.6687 47.145 42.3744 47.3268C40.9718 49.8202 39.0325 51.5821 37.1668 52.8071C34.5825 54.5083 31.5394 55.3827 28.4443 55.3827H23.1891C21.2801 55.3827 19.3971 55.0494 17.6309 54.4044C16.3496 54.0148 15.1159 53.4694 13.9688 52.7681C15.5834 54.5862 17.9642 56.387 21.4662 57.6251C21.4533 57.6207 21.4403 57.6164 21.4273 57.6121Z" fill="#4D0D4F"/>
</g>
</g>
<path d="M34.033 58.3956H22.8041C22.7695 58.3956 22.7348 58.3913 22.7002 58.3826C16.8174 56.6597 13.7742 53.4001 12.2548 50.963C10.6012 48.3138 10.3501 46.0931 10.3415 46.0022C10.3198 45.7988 10.467 45.6169 10.6705 45.5953C10.8739 45.5737 11.0557 45.7208 11.0774 45.9243C11.0817 45.9676 11.3328 48.1103 12.9041 50.6037C14.3499 52.911 17.2546 56.0018 22.8604 57.6554H33.9984C34.31 57.5861 36.6995 57.0147 39.3012 55.4001C43.0023 53.1058 45.3615 49.8981 46.3095 45.8767C46.3571 45.6776 46.5562 45.5563 46.7554 45.5996C46.9545 45.6473 47.0757 45.8464 47.0324 46.0455C45.79 51.318 42.34 54.3914 39.6691 56.045C36.7818 57.8285 34.2191 58.3653 34.1153 58.3869C34.0849 58.3913 34.059 58.3956 34.033 58.3956Z" fill="#4D0D4F"/>
<path d="M34.033 58.3956H22.8041C22.7695 58.3956 22.7348 58.3913 22.7002 58.3826C16.8174 56.6598 13.7742 53.4002 12.2548 50.9631C10.7787 48.5995 10.4237 46.5823 10.3545 46.1018C10.3458 46.0542 10.3372 46.0066 10.3372 45.9589C10.3372 45.7641 10.493 45.5997 10.6878 45.591C10.8869 45.5823 11.0557 45.7252 11.0774 45.92C11.0774 45.92 11.0774 45.9243 11.0774 45.9286C11.1423 46.0152 11.757 46.6213 16.4018 47.1407C19.735 47.513 24.0984 47.7164 28.6869 47.7164C33.2755 47.7164 37.6346 47.513 40.9721 47.1407C45.5 46.6342 46.1969 46.0499 46.2922 45.9373C46.2965 45.9157 46.3008 45.894 46.3095 45.8724C46.3528 45.6906 46.5259 45.5694 46.7121 45.591C46.8982 45.6126 47.0411 45.7728 47.0411 45.9589C47.0411 46.0455 47.0237 46.1321 46.9891 46.21C45.7121 51.3786 42.3097 54.4088 39.6648 56.0407C36.7775 57.8242 34.2148 58.361 34.1109 58.3826C34.085 58.3913 34.059 58.3956 34.033 58.3956ZM22.8561 57.6554H33.9941C34.3057 57.5861 36.6952 57.0147 39.2968 55.4001C42.669 53.3093 44.9286 50.4609 46.0195 46.9286C45.8247 47.0022 45.6039 47.0758 45.3528 47.145C44.4308 47.4048 43.1148 47.6342 41.4439 47.8333C38.0328 48.2359 33.5049 48.461 28.6869 48.461C23.869 48.461 19.3411 48.2402 15.93 47.8333C14.2591 47.6342 12.9431 47.4048 12.0211 47.145C11.7354 47.0628 11.4886 46.9806 11.2765 46.894C11.5016 47.7597 11.9691 49.119 12.8998 50.5994C14.35 52.9067 17.2503 55.9975 22.8561 57.6554Z" fill="#4D0D4F"/>
<path d="M35.7559 20.9687C35.2451 20.9601 34.8166 20.9384 34.4183 20.9298C34.0244 20.9255 33.6781 20.9428 33.3708 20.9904C33.0677 21.0423 32.7691 21.1116 32.4357 21.2674C32.3924 21.2847 32.3492 21.3021 32.3015 21.3194L32.176 21.3843C32.0894 21.4276 31.9942 21.4752 31.8946 21.5185C31.6998 21.6181 31.5224 21.7306 31.2713 21.8345C31.267 21.6614 31.3103 21.4839 31.3795 21.3107C31.4271 21.2241 31.4834 21.1419 31.544 21.0553C31.6003 20.9687 31.6739 20.8865 31.7691 20.8086C32.0938 20.4796 32.6825 20.2069 33.2712 20.1203C33.8642 20.0251 34.4226 20.0987 34.8425 20.2502C35.2668 20.4147 35.6001 20.6441 35.7559 20.9687Z" fill="#4D0D4F"/>
<path d="M21.6135 20.9687C22.1243 20.9601 22.5529 20.9384 22.9511 20.9298C23.345 20.9255 23.6913 20.9428 23.9987 20.9904C24.3017 21.0423 24.6004 21.1116 24.9337 21.2674C24.977 21.2847 25.0203 21.3021 25.0679 21.3194L25.1934 21.3843C25.28 21.4276 25.3752 21.4752 25.4748 21.5185C25.6696 21.6181 25.8471 21.7306 26.0982 21.8345C26.1025 21.6614 26.0592 21.4839 25.9899 21.3107C25.9423 21.2241 25.886 21.1419 25.8254 21.0553C25.7692 20.9687 25.6956 20.8865 25.6003 20.8086C25.2757 20.4796 24.687 20.2069 24.0983 20.1203C23.5052 20.0251 22.9468 20.0987 22.5269 20.2502C22.1027 20.4147 21.765 20.6441 21.6135 20.9687Z" fill="#4D0D4F"/>
</svg>
